<?xml version="1.0" encoding="UTF-8"?>
<svg width="170px" height="89px" viewBox="0 0 170 89" version="1.1" xmlns="http://www.w3.org/2000/svg" xmlns:xlink="http://www.w3.org/1999/xlink">
    <title>Group</title>
    <g id="Page-1" stroke="none" stroke-width="1" fill="none" fill-rule="evenodd">
        <g id="Artboard" transform="translate(-31.000000, -365.000000)">
            <g id="Group" transform="translate(31.000000, 365.000000)">
                <rect id="Rectangle" fill="#E4E4E4" x="0" y="0" width="170" height="89"></rect>
                <path d="M120.566093,74.934901 C120.571773,74.9250697 120.577632,74.9154104 120.58231,74.9050929 C120.587119,74.8945145 120.5907,74.8834557 120.594501,74.8723555 C120.598261,74.8613857 120.602109,74.850499 120.604819,74.8391794 C120.607309,74.828601 120.608709,74.8176727 120.610238,74.8067444 C120.612077,74.793895 120.613689,74.7811344 120.614128,74.7681072 C120.614259,74.7641758 120.615308,74.760458 120.615308,74.7564792 C120.615308,74.7496602 120.613689,74.7433689 120.613298,74.7366388 C120.612598,74.723564 120.611549,74.7106315 120.609367,74.6976042 C120.60744,74.6861067 120.60473,74.675048 120.601759,74.6639478 C120.598788,74.6528476 120.59564,74.6419193 120.591531,74.6309911 C120.586852,74.6186219 120.581302,74.6068635 120.57536,74.5951466 C120.572342,74.5892051 120.570593,74.5829554 120.567231,74.5770969 L118.794808,71.5072883 L117.022295,68.4373019 L115.249872,65.3673155 L113.477449,62.2973291 L111.705025,59.2273426 L109.932602,56.1573621 L108.160095,53.0875477 L106.387672,50.0175642 L104.615249,46.9475778 L102.842825,43.8775943 L101.070402,40.8076078 L99.2978897,37.7376214 L97.5254663,34.6678129 L95.753043,31.5978265 L93.9806226,28.5278415 L92.2081992,25.4578565 L90.4356869,22.3878701 L88.6632665,19.3178852 L86.8908431,16.2479002 L85.1184198,13.1780894 C85.1150103,13.1721887 85.1104653,13.1675117 85.1067919,13.1619172 C85.0996675,13.1509897 85.0923681,13.140412 85.0840637,13.1302717 C85.076459,13.1210052 85.0683295,13.1125688 85.0599806,13.1042207 C85.0521565,13.0964403 85.0442879,13.0888348 85.0356336,13.0816667 C85.0248359,13.0727493 85.0136052,13.0649697 85.0019773,13.0574509 C84.996818,13.0541298 84.9925339,13.0498893 84.9871142,13.0467859 C84.9839686,13.0449945 84.980645,13.0441636 84.9774993,13.0424151 C84.9650858,13.0357717 84.9523223,13.0303513 84.9393394,13.025194 C84.929855,13.0214347 84.92059,13.0175011 84.9109722,13.0146163 C84.8991723,13.0110319 84.8871944,13.0088024 84.8751307,13.0064861 C84.8641164,13.004344 84.8532771,13.0019841 84.8422184,13.0009352 C84.8307238,13 84.8192708,13 84.8076873,13 C84.7961039,13 84.7846093,13 84.7731118,13.0009352 C84.7620561,13.0020277 84.7511278,13.004344 84.7401135,13.0064861 C84.7280913,13.0088023 84.716161,13.0110319 84.704444,13.0145726 C84.6947432,13.0175011 84.6853448,13.0214784 84.6757715,13.0252815 C84.6628776,13.030395 84.6502446,13.0357717 84.6380059,13.0423276 C84.6347713,13.0440761 84.6313618,13.0449507 84.6281716,13.0467859 C84.6226659,13.0499768 84.6182928,13.0542609 84.6130481,13.0576698 C84.601598,13.0651003 84.5904504,13.0727932 84.5798304,13.0815357 C84.5710427,13.0887913 84.5630437,13.096528 84.5550892,13.1044833 C84.5468738,13.1127002 84.5388302,13.1210054 84.5313559,13.1301407 C84.5229626,13.1403248 84.5156188,13.1510337 84.5084529,13.1620049 C84.504824,13.1675995 84.5002345,13.1722328 84.4968694,13.1780897 L82.7244461,16.2479005 L80.9519367,19.3178855 L79.1795133,22.3878704 L77.40709,25.4578569 L75.6346666,28.5278418 L73.8622433,31.5978268 L72.0897339,34.6678132 L70.3173105,37.7376217 L68.5448872,40.8076082 L66.7724638,43.8775946 C66.6733313,44.0491083 66.7321633,44.2687052 66.9038549,44.3678393 C66.9603269,44.4003602 67.0220452,44.4159195 67.0828889,44.4159195 C67.2069376,44.4159195 67.3275754,44.3515803 67.3940136,44.2363622 L68.8556621,41.7046592 L70.3173106,44.2363622 C70.3837489,44.3515803 70.5043866,44.4159195 70.6284354,44.4159195 C70.689279,44.4159195 70.7509958,44.4003602 70.8074693,44.3678393 C70.9791609,44.2687053 71.0379945,44.0491084 70.9388604,43.8775946 L69.2700286,40.9869935 L70.8352673,38.2757747 L73.9658364,38.2757747 L75.6346667,41.1663758 L77.303497,44.0569769 L75.7382153,46.7681957 L73.0219712,46.7681957 L74.4837931,44.2363622 C74.5478714,44.1253393 74.5478714,43.9886146 74.4837931,43.8775946 L72.7112837,40.8076082 C72.6123246,40.6357416 72.3928137,40.5768221 72.221036,40.676303 C72.0494333,40.7752622 71.9905999,40.9948591 72.0897339,41.1663758 L73.7586531,44.0569769 L72.1933241,46.7681957 L68.8556621,46.7681957 C68.6574829,46.7681957 68.496807,46.9286952 68.496807,47.1269633 C68.496807,47.3252285 68.6574829,47.4857309 68.8556621,47.4857309 L72.3988026,47.4857309 C72.3992829,47.4857309 72.3997217,47.4859059 72.4001575,47.4859059 C72.4005963,47.4859059 72.4010321,47.4857309 72.4015124,47.4857309 L75.9437353,47.4857309 C75.9442186,47.4857309 75.9446545,47.4859059 75.9450932,47.4859059 C75.9455291,47.4859059 75.9459648,47.4857309 75.9464481,47.4857309 L79.488582,47.4857309 C79.4890624,47.4857309 79.4895012,47.4859059 79.4899369,47.4859059 C79.4915972,47.4859059 79.4931715,47.4852922 79.4948319,47.4852922 C79.5219331,47.4849453 79.5480263,47.4811415 79.5733369,47.4751081 C79.5814663,47.4731869 79.5890711,47.4702577 79.5970256,47.4677673 C79.6165221,47.4616479 79.635141,47.4542151 79.6530189,47.4450361 C79.6609289,47.4410159 79.6686226,47.4370816 79.6762274,47.432492 C79.6971203,47.4197285 79.7166168,47.4052188 79.7344056,47.3886071 C79.73716,47.3860721 79.7403501,47.3842369 79.7430154,47.3815271 C79.7633836,47.3613339 79.7803868,47.3382114 79.7954687,47.3136035 C79.7970845,47.3109352 79.7994889,47.3090556 79.8010632,47.3063457 L81.5734866,44.2363622 L83.345996,41.1663758 C83.3494055,41.1605203 83.3511548,41.154226 83.3541255,41.1482816 C83.3600699,41.1365647 83.3656645,41.1248507 83.3702985,41.1124816 C83.3744077,41.1015533 83.3775534,41.0905835 83.380527,41.0794804 C83.3834977,41.0684217 83.3862076,41.057363 83.3881318,41.0458685 C83.3903168,41.0328441 83.3913663,41.0199057 83.392066,41.0068368 C83.3924604,41.0001482 83.3940762,40.9938095 83.3940762,40.9869934 C83.3940762,40.9830147 83.3930267,40.9792998 83.3928963,40.9753655 C83.3924604,40.9623411 83.3908416,40.9495777 83.3890064,40.9366837 C83.3874766,40.9257554 83.3860772,40.9149161 83.3835867,40.9043377 C83.3808769,40.8929292 83.3769871,40.8819565 83.3731832,40.8708562 C83.3694239,40.859928 83.3659283,40.8489582 83.3611195,40.8385547 C83.3563106,40.8278903 83.3502802,40.8179227 83.3444217,40.8077386 C83.3387826,40.7980792 83.3334519,40.7883754 83.3269828,40.7793269 C83.3199888,40.7694482 83.3119037,40.7604441 83.3038603,40.7512651 C83.2965609,40.7430052 83.2895225,40.7347007 83.281482,40.727096 C83.2729997,40.7190525 83.2636458,40.7119281 83.2542947,40.7046732 C83.2447659,40.6972849 83.235323,40.69003 83.2250944,40.6836054 C83.221424,40.6813313 83.2184503,40.6783162 83.2146938,40.6761281 C83.2083106,40.6724577 83.2014916,40.6705335 83.1949364,40.6672989 C83.1839637,40.6617933 83.1729495,40.6565485 83.1613245,40.6521754 C83.1499575,40.6478943 83.1385489,40.6446152 83.1270099,40.6415555 C83.1162595,40.6387152 83.1055506,40.6360469 83.094403,40.6341673 C83.0810733,40.6319822 83.067871,40.6308912 83.0544968,40.630147 C83.0479832,40.6297972 83.0418223,40.6282229 83.0352197,40.6282229 L79.6974702,40.6282229 L78.0286399,37.7376218 L76.3598096,34.8471956 L78.0286399,31.9565945 C78.1277739,31.7850777 78.0689404,31.5654809 77.8972488,31.4663497 C77.7256461,31.3675655 77.5061353,31.4261351 77.4070901,31.5978268 L75.6346668,34.6678133 C75.5705885,34.7788333 75.5705885,34.915558 75.6346668,35.0265809 L77.4070901,38.0963894 L79.1795135,41.1663759 C79.1810848,41.1690857 79.1834893,41.1709654 79.185108,41.1736308 C79.2001871,41.1982416 79.2171901,41.221364 79.2375583,41.2415573 C79.2402237,41.2442671 79.2434167,41.2461023 79.2461681,41.2486372 C79.2639599,41.265246 79.2834534,41.2797588 79.3043464,41.2925222 C79.3119511,41.2971117 79.3196448,41.301046 79.3275579,41.3050663 C79.3454326,41.3142453 79.3640546,41.3216751 79.3835482,41.3277945 C79.3915027,41.3302879 79.3991104,41.3332141 79.4072399,41.3351383 C79.4325474,41.3411716 79.4586406,41.3449726 79.4857419,41.3453224 C79.4874022,41.3453224 79.4889765,41.3459361 79.4906368,41.3459361 C79.4910756,41.3459361 79.4915114,41.3457611 79.4919917,41.3457611 L82.4137588,41.3457611 L80.9519369,43.8775946 L79.2831037,46.7681957 L76.566904,46.7681957 L78.02864,44.2363622 C78.0927183,44.1253393 78.0927183,43.9886146 78.02864,43.8775946 L76.2562166,40.8076082 L74.4837933,37.7376217 C74.4818276,37.7342122 74.4790733,37.7315469 74.4770187,37.7281818 C74.4701137,37.7170786 74.4622896,37.706764 74.454246,37.6965355 C74.447427,37.6878368 74.4407829,37.6791381 74.4333531,37.6712279 C74.4253985,37.6627931 74.4166553,37.6553603 74.4079151,37.6477111 C74.3990414,37.639976 74.3903872,37.6321963 74.3808998,37.6254632 C74.3716348,37.6188191 74.3616701,37.6133135 74.3517914,37.6076299 C74.3418237,37.6018604 74.3319895,37.5959605 74.3215445,37.591196 C74.3110106,37.5863871 74.2999964,37.5828471 74.2889377,37.5790433 C74.2779205,37.575284 74.2670367,37.5714386 74.2557171,37.5687288 C74.2450972,37.5662384 74.2342134,37.5648834 74.2232851,37.5633091 C74.2104327,37.5614739 74.1977136,37.5598552 74.1846893,37.5594193 C74.1807106,37.5592889 74.1770401,37.5582393 74.1730199,37.5582393 L71.249548,37.5582393 L72.711284,35.0265807 L74.4837933,31.9565943 L76.1526236,29.0659932 L79.2830594,29.0659932 L80.848344,31.777212 L79.1795137,34.6678131 C79.1154354,34.7788331 79.1154354,34.9155578 79.1795137,35.0265807 L80.9519371,38.0963893 C81.0183753,38.2116104 81.1390131,38.2759495 81.2630603,38.2759495 C81.323904,38.2759495 81.3856223,38.2603902 81.4421818,38.2276944 C81.6137875,38.1287352 81.672618,37.9091383 81.5734869,37.7376216 L79.9046537,34.8471954 L81.4699383,32.1359796 L84.8066382,32.1359796 C84.8071186,32.1359796 84.8075574,32.1361545 84.8079931,32.1361545 C84.808432,32.1361545 84.8088677,32.1359796 84.809348,32.1359796 L91.6902395,32.1359796 L93.3590728,35.0265807 C93.425511,35.1417988 93.5461488,35.2061379 93.670196,35.2061379 C93.7310397,35.2061379 93.792758,35.1905787 93.8492314,35.1580578 C94.0209231,35.0589267 94.0797537,34.8393298 93.9806225,34.667813 L92.2081992,31.5978266 C92.2062305,31.5944171 92.2034792,31.5917517 92.2014246,31.5883867 C92.1945166,31.5772835 92.1866925,31.5669689 92.1786519,31.5567404 C92.1718329,31.5480417 92.1651888,31.539343 92.157759,31.5314328 C92.1498015,31.522995 92.1410612,31.5155651 92.132318,31.507916 C92.1234443,31.5001808 92.1147901,31.4923982 92.1053057,31.4856681 C92.0960407,31.479024 92.0860731,31.4735154 92.0761943,31.4678348 C92.0662296,31.4620653 92.0563954,31.4561654 92.0459475,31.4514009 C92.0354135,31.446592 92.0243993,31.443052 92.0133406,31.4392482 C92.0023264,31.4354889 91.9914426,31.4316435 91.980123,31.4289337 C91.9695,31.4264403 91.9586163,31.4250854 91.947691,31.423514 C91.9348386,31.4216758 91.9221195,31.42006 91.9090952,31.4196242 C91.9051165,31.4194907 91.901446,31.4184412 91.8974228,31.4184412 L85.0148265,31.4184412 L83.3459962,28.5278416 L81.677077,25.6372405 L83.3459962,22.7466394 L85.1184196,19.6766544 C85.2175536,19.5051377 85.1587201,19.2855408 84.9870285,19.1864067 C84.8154258,19.087449 84.5959149,19.1461937 84.4968698,19.3178853 L82.7244465,22.3878703 L80.9519371,25.4578567 C80.9500129,25.4611788 80.9490938,25.4648062 80.9473031,25.4681712 C80.9410088,25.4798852 80.935939,25.4919489 80.9310411,25.5041876 C80.9269764,25.5143287 80.9227812,25.5242949 80.9196771,25.5346094 C80.9163565,25.5458001 80.9142574,25.5571641 80.9119864,25.5686602 C80.9097568,25.5801117 80.9073524,25.5914328 80.9062169,25.6029718 C80.9051229,25.6143804 80.9053423,25.6257444 80.9053423,25.6372405 C80.9053423,25.6487365 80.9051229,25.6601006 80.9062169,25.6715091 C80.9073524,25.6830482 80.9097568,25.6943692 80.9119864,25.7058208 C80.9142575,25.7173168 80.9163566,25.7286809 80.9196771,25.7398701 C80.9227812,25.7501861 80.9269764,25.7601522 80.9310411,25.7702919 C80.935939,25.7825306 80.9410088,25.7945944 80.9473031,25.8063083 C80.9490938,25.8096748 80.9500129,25.8133022 80.9519371,25.8166242 L82.7244465,28.8866092 L84.1861824,31.4184412 L81.4698938,31.4184412 L79.8010636,28.5278416 C79.7990949,28.5244321 79.7963436,28.5217652 79.794289,28.5184002 C79.787381,28.5072985 79.7795569,28.4969824 79.7715163,28.4867539 C79.7646973,28.4780566 79.7580532,28.4693579 79.7506233,28.4614463 C79.7426659,28.45301 79.7339256,28.4455801 79.7251824,28.4379309 C79.7163087,28.4301943 79.7076545,28.4224132 79.6981701,28.4156831 C79.6889051,28.409039 79.6789375,28.4035319 79.6690587,28.3978498 C79.659094,28.3920788 79.6492598,28.3861788 79.6388119,28.3814144 C79.6282779,28.3766055 79.6172637,28.3730655 79.606205,28.3692632 C79.5951908,28.3655038 79.5843069,28.361657 79.5729873,28.3589472 C79.5623644,28.3564568 79.5514807,28.3551018 79.5405524,28.3535275 C79.527703,28.3516923 79.514984,28.350075 79.5019596,28.3496377 C79.4979809,28.3495057 79.4943104,28.3484577 79.4902872,28.3484577 L76.5669043,28.3484577 L78.0286402,25.8166242 L79.8010636,22.7466393 L81.5734869,19.6766543 L83.3459963,16.6066687 L84.8076433,14.0750976 L86.2692933,16.6066687 L87.9381236,19.4972691 L86.2692933,22.3878702 L84.49687,25.4578566 C84.3977359,25.6293718 84.4565694,25.8489687 84.628261,25.9481028 C84.6847316,25.9806222 84.7464499,25.996183 84.8072935,25.996183 C84.9313437,25.996183 85.0519815,25.9318423 85.1184197,25.8166242 L86.8908431,22.7466393 L88.3524901,20.2149377 L89.8141371,22.7466393 L91.5866495,25.8166242 L93.0483854,28.3484577 L90.3320968,28.3484577 L88.6632666,25.4578566 C88.6598986,25.4519997 88.6553535,25.4473657 88.6517276,25.4417711 C88.6445587,25.4307569 88.6371704,25.420091 88.6287355,25.4098624 C88.6213028,25.4007279 88.6133067,25.3924665 88.6050883,25.3842495 C88.5970448,25.376206 88.5889597,25.3683818 88.5800861,25.3610826 C88.5697716,25.3526033 88.5589738,25.3451734 88.5479151,25.3379171 C88.542365,25.3342897 88.537731,25.3297432 88.5318755,25.3263781 C88.528466,25.3244109 88.5247926,25.3234934 88.5213416,25.3216567 C88.5097581,25.3154498 88.4978248,25.3104675 88.4856721,25.3055727 C88.4755324,25.3015064 88.4654788,25.2972667 88.4551198,25.2942071 C88.4438861,25.2908421 88.4324776,25.2887 88.4209386,25.2864704 C88.4095746,25.2842424 88.3982994,25.2818379 88.3868464,25.2807454 C88.3754378,25.2796529 88.3640293,25.2798708 88.3524903,25.2798278 C88.3409957,25.2798708 88.3295872,25.2796529 88.3181786,25.2807454 C88.3066841,25.2818379 88.295406,25.2842423 88.2839529,25.2864704 C88.2725028,25.2887445 88.2611388,25.2908421 88.2499466,25.2941641 C88.2395016,25.2972667 88.2294036,25.3015509 88.2191335,25.3056601 C88.2071112,25.3104675 88.1952668,25.3154498 88.1837723,25.3215692 C88.1802739,25.3234489 88.1765589,25.3243666 88.1731049,25.3263781 C88.167205,25.3297876 88.1625295,25.3343772 88.156846,25.3380921 C88.1459177,25.3452165 88.1352533,25.3526033 88.1250248,25.3609951 C88.1160652,25.3683819 88.1078467,25.3762935 88.0997617,25.3844244 C88.0916323,25.3925539 88.0837192,25.4007279 88.0762894,25.409775 C88.0678545,25.4200036 88.0604217,25.4307569 88.0532558,25.4418141 C88.0496269,25.4474101 88.0450819,25.4519997 88.0417168,25.4578566 L86.2692935,28.5278416 C86.1701594,28.6993583 86.2289929,28.9189551 86.4006845,29.0180878 C86.4571551,29.0506072 86.5188734,29.0661679 86.579717,29.0661679 C86.7037643,29.0661679 86.824405,29.0018273 86.8908432,28.8866092 L88.3524903,26.3549076 L89.8141373,28.8866092 C89.8157116,28.889319 89.818116,28.8911988 89.8197318,28.8938656 C89.8348138,28.9184734 89.851817,28.9415959 89.8721851,28.9617906 C89.8748504,28.9645004 89.8780406,28.9663357 89.8807949,28.9688706 C89.8985867,28.9854809 89.9180802,29 89.9389732,29.0127555 C89.9465779,29.0173451 89.9542715,29.0212794 89.9621817,29.0252996 C89.9800594,29.0344786 89.9986813,29.0419099 90.0181749,29.0480293 C90.0261295,29.0505197 90.0337342,29.053449 90.0418666,29.0553716 C90.0671742,29.0614035 90.0932674,29.0652074 90.1203687,29.0655572 C90.1220289,29.0655572 90.1236032,29.0661679 90.1252636,29.0661679 C90.1256994,29.0661679 90.1261382,29.065993 90.1266185,29.065993 L93.4626632,29.065993 L95.1314964,31.9565941 L96.8003237,34.8471952 L95.2350866,37.558239 L92.1046058,37.558239 L90.4356865,34.6678128 C90.3366414,34.4961212 90.1173084,34.4371987 89.9454418,34.5365077 C89.7738391,34.6354669 89.7150056,34.8550638 89.8141367,35.0265804 L91.586649,38.096389 C91.5882233,38.0991017 91.5906248,38.1009785 91.5922436,38.1036468 C91.6073226,38.1282547 91.6243256,38.1513771 91.6446939,38.1715704 C91.6473622,38.1742802 91.6505523,38.1761154 91.6533066,38.1786503 C91.6710954,38.1952621 91.690589,38.2097719 91.7114819,38.2225353 C91.7190896,38.2271248 91.7267803,38.2310591 91.7346934,38.2350794 C91.7525711,38.2442584 91.7711901,38.2516911 91.7906837,38.2578105 C91.7986412,38.2603009 91.8062459,38.2632302 91.8143754,38.2651543 C91.839683,38.2711847 91.8657761,38.2749886 91.8928774,38.2753384 C91.8945377,38.2753384 91.896112,38.2759492 91.8977724,38.2759492 C91.8982112,38.2759492 91.8986469,38.2757742 91.8991273,38.2757742 L95.235086,38.2757742 L96.9039192,41.1663753 L98.6763426,44.2363617 C98.7427778,44.3515799 98.8634156,44.415919 98.9874629,44.415919 C99.0483065,44.415919 99.1100278,44.4003597 99.1665013,44.3678388 C99.3381929,44.2687048 99.3970264,44.0491079 99.2978894,43.8775941 L97.525466,40.8076077 L95.8566387,37.9170066 L97.2146896,35.5648193 L98.6763426,38.0963889 L100.448849,41.1663753 L102.221272,44.2363617 L103.993696,47.3063452 L105.766119,50.3763317 L107.227855,52.9081651 L101.381089,52.9081651 L102.842825,50.3763317 C102.844794,50.3729221 102.845707,50.3692932 102.847545,50.3658422 C102.853706,50.3543032 102.858734,50.3423254 102.863632,50.3302171 C102.867741,50.3199886 102.871981,50.3098935 102.875082,50.29949 C102.878403,50.2883868 102.880502,50.2770671 102.882731,50.2656586 C102.885002,50.2541641 102.88741,50.2427556 102.888542,50.2312166 C102.889639,50.219808 102.88942,50.2084439 102.88942,50.1969464 C102.88942,50.1854519 102.889639,50.1740878 102.888542,50.1626792 C102.88741,50.1511402 102.885002,50.1397316 102.882731,50.1282371 C102.880502,50.1168286 102.878403,50.105506 102.875082,50.0944058 C102.871981,50.0840023 102.867741,50.0739042 102.863632,50.0636757 C102.858734,50.0515704 102.853706,50.0395926 102.847545,50.0280536 C102.845707,50.0245996 102.844794,50.0209736 102.842825,50.0175641 L101.070402,46.9475777 C101.068433,46.9441682 101.065682,46.9415028 101.063624,46.9381377 C101.056722,46.9270791 101.048937,46.916806 101.040896,46.9065774 C101.034035,46.8978372 101.027388,46.8890939 101.019917,46.8811394 C101.012007,46.8727461 101.003308,46.8653607 100.994609,46.857756 C100.985691,46.8500179 100.976993,46.8421493 100.967464,46.8353748 C100.958243,46.8287752 100.948364,46.8233555 100.938575,46.8176719 C100.928518,46.8118609 100.918639,46.8059165 100.908108,46.801152 C100.89766,46.7963876 100.886691,46.7928476 100.875721,46.7890438 C100.864615,46.7852399 100.853687,46.7813946 100.842278,46.7786848 C100.831705,46.7761944 100.82086,46.7747949 100.809979,46.7732651 C100.797083,46.7714299 100.784322,46.7698111 100.771295,46.7693752 C100.767316,46.7692418 100.763645,46.7681953 100.759625,46.7681953 L97.4218757,46.7681953 L95.7530425,43.8775942 L93.9806221,40.8076078 C93.9786535,40.8041538 93.9758992,40.8014884 93.9738031,40.7981649 C93.9669396,40.7871091 93.9592044,40.7769221 93.9512498,40.766738 C93.9443419,40.7579088 93.9375673,40.7490382 93.930007,40.7409946 C93.9222689,40.7328651 93.9137896,40.7256073 93.9053103,40.7181775 C93.8961757,40.7101785 93.8872131,40.702135 93.8773789,40.6951855 C93.8685496,40.6888497 93.8590208,40.683605 93.8495364,40.6780964 C93.8391329,40.672063 93.8289044,40.6659437 93.8180206,40.6610043 C93.807881,40.6563733 93.7973026,40.6530083 93.7867272,40.6493349 C93.7752297,40.6453591 93.7639101,40.6413804 93.7521072,40.638626 C93.7418786,40.6361801 93.7313892,40.6348667 93.7208997,40.6333813 C93.7076559,40.6314572 93.6945426,40.6297968 93.6811239,40.629361 C93.6772756,40.6292276 93.6736941,40.6282226 93.6698458,40.6282226 L90.3320963,40.6282226 L88.663266,37.7376215 C88.6612974,37.734212 88.6585431,37.7315022 88.6564885,37.7281816 C88.6495835,37.7171229 88.6418483,37.7068943 88.6338048,37.6967102 C88.6269858,37.6879255 88.6202557,37.6791378 88.612737,37.6711388 C88.6048684,37.6627928 88.5962142,37.655449 88.5875599,37.6478858 C88.5786418,37.6401061 88.5699016,37.6321961 88.5603282,37.625377 C88.5511047,37.6188189 88.5412289,37.6133992 88.5313918,37.6076742 C88.5213411,37.6019047 88.5115039,37.5959602 88.5010144,37.5911958 C88.4904805,37.5863869 88.4794663,37.5828469 88.468452,37.5790431 C88.4573933,37.5752838 88.4465095,37.5714384 88.4351899,37.5687286 C88.424567,37.5662382 88.4136832,37.5648387 88.4027135,37.5633089 C88.3899055,37.5614737 88.377142,37.5598549 88.3641592,37.5594191 C88.3601834,37.5592886 88.35651,37.5582391 88.3524898,37.5582391 L85.0148263,37.5582391 L83.6566835,35.2059629 L86.5800664,35.2059629 C86.7782455,35.2059629 86.9389229,35.0454634 86.9389229,34.8471953 C86.9389229,34.6489301 86.7782455,34.4884276 86.5800664,34.4884276 L83.0352196,34.4884276 C83.0288394,34.4884276 83.0229394,34.4899575 83.0166451,34.4903073 C83.0029626,34.491007 82.9894134,34.4920981 82.9757753,34.4944165 C82.9647166,34.4962962 82.9540967,34.4989171 82.9434294,34.5017603 C82.9319793,34.50482 82.9207012,34.5080546 82.9095121,34.5122943 C82.8972289,34.5168838 82.8856454,34.5223894 82.8740649,34.5282479 C82.8680316,34.5313076 82.8616928,34.5330983 82.8557484,34.5365078 C82.8522974,34.5385179 82.8496291,34.5412277 82.8463084,34.5433268 C82.8352942,34.5501903 82.8250656,34.5579255 82.8148815,34.5658801 C82.8060969,34.5727436 82.7973536,34.5794322 82.7893546,34.5869479 C82.7809613,34.5949054 82.7735315,34.6036012 82.7659268,34.6122999 C82.7581886,34.6211736 82.7504091,34.6298279 82.7436345,34.6393122 C82.7369904,34.6485802 82.7315262,34.6585449 82.7257567,34.6684236 C82.7199872,34.6784328 82.7140873,34.6882255 82.7093228,34.6986705 C82.7045584,34.7092044 82.7009739,34.7202186 82.6972146,34.7312358 C82.6934107,34.7422501 82.6895654,34.7531754 82.6868555,34.7644979 C82.6843651,34.7751178 82.6829657,34.7860016 82.6814359,34.7969299 C82.6796006,34.8097794 82.6779819,34.8225429 82.677546,34.8355701 C82.6774156,34.8395044 82.6763661,34.8432193 82.6763661,34.8471951 C82.6763661,34.8540141 82.6779819,34.8603084 82.6783762,34.8670415 C82.679076,34.8801104 82.6801255,34.8930458 82.6823105,34.9060731 C82.6842317,34.9175677 82.6869445,34.9286264 82.6899152,34.939685 C82.6928889,34.9507882 82.6960346,34.961758 82.7001438,34.9726863 C82.7047778,34.9850554 82.7103724,34.9967693 82.7163168,35.0084833 C82.7192875,35.0144277 82.7210368,35.020722 82.7244463,35.0265804 L84.4968696,38.096389 C84.498444,38.0991017 84.5008454,38.1009785 84.5024642,38.1036468 C84.5175432,38.1282547 84.5345463,38.1513771 84.5549145,38.1715704 C84.5575828,38.1742802 84.5607729,38.1761154 84.5635272,38.1786503 C84.5813161,38.1952621 84.6008096,38.2097719 84.6217026,38.2225353 C84.6293103,38.2271248 84.6370009,38.2310591 84.644914,38.2350794 C84.6627918,38.2442584 84.6814107,38.2516911 84.7009043,38.2578105 C84.7088618,38.2603009 84.7164665,38.2632302 84.724596,38.2651543 C84.7499036,38.2711847 84.7759997,38.2749886 84.8030981,38.2753384 C84.8047583,38.2753384 84.8063326,38.2759492 84.807993,38.2759492 C84.8084318,38.2759492 84.8088676,38.2757742 84.8093479,38.2757742 L88.1453066,38.2757742 L89.8141369,41.1663753 C89.8157112,41.1690851 89.8181156,41.1709649 89.8197315,41.1736302 C89.8348134,41.198241 89.8518166,41.2213635 89.8721847,41.2415567 C89.87485,41.2442666 89.8780402,41.2461018 89.8807945,41.2486367 C89.8985863,41.2652455 89.9180798,41.2797582 89.9389728,41.2925216 C89.9465775,41.2971112 89.9542711,41.3010455 89.9621813,41.3050657 C89.980059,41.3142448 89.9986809,41.3216745 90.0181746,41.3277939 C90.0261291,41.3302874 90.0337338,41.3332136 90.0418662,41.3351377 C90.0671738,41.3411711 90.093267,41.344972 90.1203683,41.3453218 C90.1220285,41.3453218 90.1236029,41.3459355 90.1252632,41.3459355 C90.1256991,41.3459355 90.1261378,41.3457606 90.1266181,41.3457606 L93.4626628,41.3457606 L95.131496,44.2363617 L96.9039194,47.3063451 C96.9054907,47.3090549 96.9078922,47.3109347 96.909511,47.313603 C96.92459,47.3382109 96.9415961,47.3613333 96.9619642,47.3815266 C96.9646325,47.3842364 96.9678226,47.3860716 96.970574,47.3886065 C96.9883628,47.4052183 97.0078593,47.4197281 97.0287494,47.4324915 C97.036357,47.437081 97.0440477,47.4410153 97.0519638,47.4450356 C97.0698415,47.4542146 97.0884605,47.4616473 97.107951,47.4677667 C97.1159085,47.4702571 97.1235163,47.4731864 97.1316458,47.4751076 C97.1569533,47.4811409 97.1830495,47.4849448 97.2101478,47.4852917 C97.2118081,47.4852917 97.2133794,47.4859053 97.2150398,47.4859053 C97.2154786,47.4859053 97.2159174,47.4857304 97.2163976,47.4857304 L100.552445,47.4857304 L102.117682,50.1969462 L100.448849,53.0875473 L98.6763428,56.1573618 C98.6122616,56.2683818 98.6122616,56.4051065 98.6763428,56.5161265 L100.448849,59.5861129 L102.221273,62.6560993 C102.287714,62.7713175 102.408352,62.8356536 102.532399,62.8356536 C102.593242,62.8356536 102.654958,62.8200944 102.711431,62.7875764 C102.883123,62.6884453 102.941956,62.4688484 102.842825,62.2973287 L101.070402,59.2273423 L99.4014798,56.3367442 L100.966812,53.6257003 L107.642133,53.6257003 L109.311055,56.5161265 L111.083478,59.586113 L112.545214,62.1179464 L109.829012,62.1179464 L108.160096,59.2273423 C108.158127,59.2239328 108.15537,59.221223 108.153318,59.2179024 C108.14641,59.2068437 108.13863,59.1966151 108.130631,59.1863866 C108.123771,59.1776049 108.117082,59.1688172 108.109522,59.1608182 C108.101742,59.1525998 108.093216,59.1453004 108.084695,59.1378291 C108.075605,59.1298716 108.066645,59.121831 108.056897,59.114923 C108.048109,59.1086732 108.038758,59.1035144 108.029401,59.0980533 C108.018781,59.0918865 108.008333,59.0856366 107.997233,59.0806084 C107.987485,59.0761967 107.977298,59.0729177 107.967158,59.0693777 C107.955228,59.0651795 107.943422,59.0610703 107.931142,59.0581885 C107.921441,59.0559174 107.911473,59.0546901 107.901423,59.0532076 C107.887696,59.0511975 107.874057,59.0494898 107.860117,59.049051 C107.856441,59.0489206 107.853031,59.0479599 107.849319,59.0479599 L104.511653,59.0479599 L103.153513,56.6955088 L106.076896,56.6955088 C106.275075,56.6955088 106.435749,56.5350122 106.435749,56.3367441 C106.435749,56.1384759 106.275075,55.9779735 106.076896,55.9779735 L102.532049,55.9779735 C102.525271,55.9779735 102.518939,55.9795923 102.51225,55.9799837 C102.499134,55.9806834 102.486154,55.9817329 102.473085,55.9839209 C102.461765,55.9858006 102.450926,55.988463 102.439998,55.9913922 C102.428589,55.9944104 102.417353,55.997642 102.406163,56.0018816 C102.394364,56.0062992 102.383133,56.0116299 102.371944,56.0172275 C102.365605,56.0204176 102.358916,56.0222973 102.352667,56.0258788 C102.348996,56.0280194 102.346108,56.0309486 102.342527,56.0331781 C102.33199,56.0397778 102.322242,56.0472135 102.312494,56.0548153 C102.303362,56.0618952 102.294272,56.0688447 102.285964,56.0766718 C102.277788,56.0844514 102.270536,56.0929307 102.263058,56.1014515 C102.25519,56.1104586 102.24728,56.1192463 102.240419,56.1289056 C102.23382,56.1381261 102.228352,56.1480049 102.222672,56.1578836 C102.216902,56.1678928 102.210961,56.17773 102.206193,56.1882195 C102.201385,56.1987089 102.197803,56.2097676 102.193996,56.2208263 C102.190243,56.2318376 102.186395,56.2426828 102.183685,56.254044 C102.181194,56.2646223 102.179795,56.2755032 102.178265,56.2864789 C102.176427,56.2993284 102.174808,56.3120889 102.174375,56.3251162 C102.174245,56.3290475 102.173195,56.3327653 102.173195,56.3367441 C102.173195,56.3435631 102.174808,56.3499019 102.175205,56.3565846 C102.175905,56.3696534 102.176955,56.3825918 102.179137,56.3956191 C102.181064,56.4071166 102.183774,56.4181753 102.186744,56.429234 C102.189715,56.4403342 102.192864,56.451304 102.196973,56.4622323 C102.201604,56.4746014 102.207202,56.4863183 102.213143,56.4980293 C102.216114,56.5039767 102.217863,56.510268 102.221273,56.5161265 L103.993696,59.5861129 C103.995273,59.5888227 103.997675,59.5907024 103.999293,59.5933707 C104.014372,59.6179786 104.031373,59.6410981 104.051741,59.6612943 C104.054409,59.6640041 104.057599,59.6658364 104.060356,59.6683743 C104.078145,59.6849831 104.097636,59.6994929 104.118532,59.7122592 C104.126139,59.7168488 104.13383,59.72078 104.14174,59.7248004 C104.159618,59.7339794 104.178237,59.7414151 104.197734,59.7475345 C104.205691,59.7500248 104.213293,59.7529541 104.221422,59.7548753 C104.24673,59.7609057 104.272826,59.7647125 104.299924,59.7650565 C104.301585,59.7650565 104.303162,59.7656732 104.304822,59.7656732 C104.305261,59.7656732 104.305694,59.7654953 104.306174,59.7654953 L107.642133,59.7654953 L109.207459,62.4767111 L107.538543,65.3673152 C107.535175,65.3731737 107.533431,65.3794235 107.530413,65.385365 C107.524466,65.3970819 107.518916,65.4088403 107.514243,65.4212094 C107.510134,65.4321377 107.506985,65.4430659 107.504015,65.4541662 C107.501038,65.4652664 107.498328,65.4763251 107.496407,65.4878226 C107.494219,65.5008499 107.493175,65.5137883 107.492476,65.5268571 C107.492078,65.5335873 107.490465,65.5398786 107.490465,65.5466976 C107.490465,65.5506764 107.491509,65.5543943 107.491645,65.5583255 C107.492078,65.5713529 107.493697,65.5841134 107.495535,65.5969628 C107.497065,65.6078911 107.498459,65.6187778 107.500955,65.6293977 C107.503665,65.6407647 107.507507,65.6516456 107.511314,65.6627043 C107.515115,65.6737215 107.518613,65.6846913 107.523422,65.6951807 C107.528184,65.7056702 107.534131,65.71546 107.539901,65.7254691 C107.545623,65.7353953 107.551131,65.7453155 107.557731,65.7545834 C107.564508,65.7640649 107.572288,65.7727221 107.580026,65.7815928 C107.587628,65.7902915 107.595058,65.7989902 107.603454,65.8069478 C107.611453,65.8144665 107.620193,65.8211492 107.628981,65.8280156 C107.639162,65.8359672 107.649349,65.8437054 107.66036,65.8505659 C107.663728,65.852665 107.666391,65.8553748 107.669848,65.857385 C107.67404,65.8598338 107.678677,65.8605336 107.682917,65.8628046 C107.701974,65.8728613 107.721904,65.8810323 107.7428,65.8875904 C107.75071,65.8900808 107.7584,65.8929686 107.766447,65.8948897 C107.790746,65.9006593 107.815835,65.9041577 107.8418,65.904727 C107.844202,65.9047685 107.846609,65.9056401 107.848969,65.9056401 C107.849408,65.9056401 107.849841,65.9054681 107.850321,65.9054681 L111.394249,65.9054681 C111.592428,65.9054681 111.753108,65.7449656 111.753108,65.5466975 C111.753108,65.3484295 111.592428,65.1879329 111.394249,65.1879329 L108.470783,65.1879329 L109.829012,62.8354817 L112.959492,62.8354817 L114.628325,65.7260858 L116.400742,68.7960664 L118.173255,71.8660528 L119.634991,74.3977143 L116.918705,74.3977143 L115.249872,71.5072881 L113.477449,68.4373017 C113.47548,68.4338922 113.472729,68.4312239 113.470677,68.4278617 C113.463769,68.4167556 113.455942,68.406444 113.447901,68.3962154 C113.441082,68.3875167 113.434441,68.378818 113.427011,68.3709079 C113.419054,68.3624701 113.410314,68.3550402 113.401567,68.347391 C113.392697,68.3396529 113.38404,68.3318733 113.374558,68.3251432 C113.36529,68.318496 113.355322,68.3129875 113.345444,68.3073069 C113.335482,68.3015374 113.325645,68.2956375 113.315197,68.2908701 C113.304666,68.2860671 113.293649,68.2825271 113.28259,68.2787203 C113.271579,68.274961 113.260692,68.2711186 113.249372,68.2684088 C113.238752,68.2659124 113.227866,68.2645604 113.216943,68.2629891 C113.204088,68.2611509 113.191369,68.2595322 113.178348,68.2590933 C113.174369,68.2589629 113.170698,68.2579134 113.166672,68.2579134 L106.076896,68.2579134 C106.072875,68.2579134 106.069205,68.2589629 106.065226,68.2590933 C106.052199,68.2595322 106.03948,68.2611509 106.02663,68.2629891 C106.015702,68.2645604 106.004815,68.2659124 105.994195,68.2684088 C105.982876,68.2711186 105.971989,68.274961 105.960978,68.2787203 C105.949919,68.2825272 105.938902,68.2860671 105.928371,68.2908701 C105.917923,68.2956374 105.908086,68.3015374 105.898124,68.3073069 C105.888245,68.3129875 105.878278,68.3184961 105.86901,68.3251432 C105.859528,68.3318733 105.850871,68.3396529 105.842,68.347391 C105.83326,68.3550402 105.824514,68.3624701 105.816562,68.3709079 C105.809133,68.3788179 105.802486,68.3875167 105.795667,68.3962154 C105.787626,68.406444 105.779799,68.4167556 105.772897,68.4278617 C105.770839,68.4312239 105.768088,68.4338922 105.766119,68.4373017 L104.097286,71.3278998 L100.759626,71.3278998 C100.561446,71.3278998 100.400772,71.4884023 100.400772,71.6866704 C100.400772,71.8849385 100.561446,72.0454351 100.759626,72.0454351 L104.302765,72.0454351 C104.303251,72.0454351 104.303684,72.045613 104.304122,72.045613 C104.305783,72.045613 104.307354,72.0450023 104.30902,72.0450023 C104.336119,72.0446524 104.362215,72.0408456 104.387522,72.0348152 C104.395652,72.032894 104.403254,72.0299648 104.411211,72.0274743 C104.430708,72.021355 104.449327,72.0139252 104.467204,72.0047462 C104.475114,72.0007199 104.482805,71.9967887 104.490413,71.9921991 C104.511309,71.9794386 104.530799,71.964923 104.548588,71.9483142 C104.551345,71.9457822 104.554536,71.943944 104.557198,71.9412342 C104.577572,71.921038 104.594572,71.8979185 104.609651,71.8733106 C104.61127,71.8706423 104.613671,71.8687627 104.615249,71.8660528 L106.284076,68.9754546 L109.414645,68.9754546 L111.083478,71.8660528 C111.149914,71.9812709 111.270551,72.045613 111.394599,72.045613 C111.455442,72.045613 111.517164,72.0300537 111.573637,71.9975298 C111.745329,71.8983987 111.804162,71.6788018 111.705025,71.507288 L110.243289,68.9754549 L112.959492,68.9754549 L114.628325,71.866053 L116.090055,74.3977146 L109.829012,74.3977146 L108.160095,71.5072883 C108.061047,71.3355967 107.841711,71.2764964 107.669848,71.3759832 C107.498245,71.4749424 107.439411,71.6945393 107.538543,71.866053 L109.00032,74.3977146 L99.1942993,74.3977146 L97.5254661,71.5072883 C97.4264239,71.3355967 97.2070879,71.2764964 97.0352184,71.3759832 C96.8636157,71.4749424 96.8047822,71.6945393 96.9039192,71.866053 L98.3656552,74.3977146 L88.9739536,74.3977146 L90.3320964,72.0454354 L93.669846,72.0454354 C93.8680251,72.0454354 94.0287025,71.8849389 94.0287025,71.6866707 C94.0287025,71.4884026 93.8680251,71.3279001 93.669846,71.3279001 L90.1249132,71.3279001 C90.1214177,71.3279001 90.1181831,71.3288193 90.1146847,71.3289497 C90.1001305,71.329347 90.0858816,71.3310903 90.0715438,71.3332783 C90.0621454,71.3346777 90.0527914,71.3358577 90.0436124,71.3379568 C90.0307185,71.340969 90.0183493,71.3452561 90.0058468,71.3496678 C89.9962319,71.3530773 89.9866171,71.356137 89.9774381,71.3603352 C89.9658101,71.3655769 89.9549263,71.3720462 89.9439121,71.3785153 C89.934994,71.383763 89.9259899,71.3886608 89.9175995,71.3946438 C89.9075459,71.4017712 89.8983223,71.4100312 89.8889684,71.4182496 C89.8807085,71.4255074 89.8724456,71.4325874 89.8648409,71.4405864 C89.8571917,71.4487159 89.8503727,71.457634 89.8433787,71.4665936 C89.8354686,71.4766917 89.8277749,71.4868728 89.8209559,71.4978011 C89.8188597,71.5011691 89.8161499,71.5038315 89.8141368,71.5072884 L88.1453066,74.3977147 L81.8842157,74.3977147 L83.242403,72.0454355 L86.5783617,72.0454355 C86.578842,72.0454355 86.5792808,72.0456134 86.5797166,72.0456134 C86.5813769,72.0456134 86.5829512,72.0450026 86.5846115,72.0450026 C86.6117127,72.0446528 86.637806,72.040846 86.6631165,72.0348156 C86.671246,72.0328944 86.6788507,72.0299652 86.6868053,72.0274747 C86.7062988,72.0213554 86.7249207,72.0139256 86.7427985,72.0047465 C86.7507086,72.0007203 86.7584023,71.9967891 86.766007,71.9921995 C86.7869,71.979439 86.8063965,71.9649233 86.8241853,71.9483146 C86.8269397,71.9457826 86.8301298,71.9439444 86.8327951,71.9412346 C86.8531633,71.9210384 86.8701665,71.8979189 86.8852484,71.873311 C86.8868642,71.8706427 86.8892686,71.8687631 86.8908429,71.8660532 L88.5596732,68.975455 L91.8957179,68.975455 C91.8962012,68.975455 91.896637,68.975627 91.8970728,68.975627 C91.898736,68.975627 91.9003074,68.9750163 91.9019707,68.9750163 C91.9290689,68.9746665 91.9551651,68.9708656 91.9804727,68.9648292 C91.9886022,68.9629081 91.9962069,68.9599789 92.0041614,68.9574884 C92.0236579,68.9513691 92.0422769,68.9439392 92.0601547,68.9347602 C92.0680648,68.9307399 92.0757585,68.9268027 92.0833632,68.9222132 C92.1042562,68.9094526 92.1237527,68.894937 92.1415415,68.8783282 C92.1442958,68.8757962 92.1474859,68.8739581 92.1501513,68.8712483 C92.1705224,68.851058 92.1875226,68.8279325 92.2026045,68.8033247 C92.2042203,68.8006564 92.2066248,68.7987767 92.2081991,68.7960668 L93.8770293,65.9054687 L97.0075096,65.9054687 L98.3656554,68.2579139 L95.4422695,68.2579139 C95.2440903,68.2579139 95.0834129,68.4184165 95.0834129,68.6166845 C95.0834129,68.8149526 95.2440903,68.9754551 95.4422695,68.9754551 L98.9861112,68.9754551 C98.9865915,68.9754551 98.9870303,68.9756271 98.9874631,68.9756271 C98.9879019,68.9756271 98.9883407,68.9754551 98.988821,68.9754551 L102.532049,68.9754551 C102.730228,68.9754551 102.890903,68.8149526 102.890903,68.6166845 C102.890903,68.4184165 102.730228,68.2579139 102.532049,68.2579139 L99.194341,68.2579139 L97.6290564,65.5466981 L98.9871132,63.1943833 L100.448849,65.7260864 C100.450426,65.7287962 100.452828,65.7306759 100.454447,65.7333382 C100.469526,65.7579461 100.486526,65.7810715 100.5069,65.8012618 C100.509562,65.8039716 100.512752,65.8058098 100.51551,65.8083477 C100.533299,65.8249565 100.552795,65.8394663 100.573685,65.8522267 C100.581293,65.8568163 100.588983,65.8607535 100.596894,65.8647738 C100.614771,65.8739528 100.63339,65.8813826 100.652887,65.887502 C100.660844,65.8899923 100.668446,65.8929216 100.676576,65.8948487 C100.701883,65.9008791 100.727979,65.90468 100.755078,65.9050299 C100.756744,65.9050299 100.758315,65.9056406 100.759975,65.9056406 C100.760414,65.9056406 100.760847,65.9054686 100.761333,65.9054686 L104.302765,65.9054686 C104.303251,65.9054686 104.303684,65.9056406 104.304123,65.9056406 C104.305783,65.9056406 104.307354,65.9050299 104.30902,65.9050299 C104.336119,65.90468 104.362215,65.9008791 104.387522,65.8948487 C104.395652,65.8929216 104.403254,65.8899923 104.411211,65.887502 C104.430708,65.8813826 104.449327,65.8739528 104.467204,65.8647738 C104.475115,65.8607535 104.482805,65.8568163 104.490413,65.8522267 C104.511309,65.8394662 104.530799,65.8249565 104.548588,65.8083477 C104.551346,65.8058098 104.554536,65.8039716 104.557198,65.8012618 C104.577572,65.7810715 104.594572,65.7579461 104.609651,65.7333382 C104.61127,65.7306758 104.613672,65.7287962 104.615249,65.7260864 L106.387672,62.6560999 C106.486803,62.4845802 106.42797,62.2649833 106.256278,62.1658523 C106.084675,62.067071 105.865167,62.1256377 105.766119,62.2973294 L104.097286,65.1879335 L100.966812,65.1879335 L99.2978897,62.2973294 C99.2945691,62.2915184 99.2900211,62.2869288 99.2863922,62.2813787 C99.2791818,62.2702725 99.2717105,62.2594747 99.2631837,62.2491158 C99.2559318,62.2402866 99.2481522,62.2322046 99.2401946,62.224247 C99.2318872,62.2158981 99.2234968,62.2078101 99.2142289,62.2002499 C99.2043976,62.1921619 99.1940801,62.1850404 99.1835017,62.178091 C99.1776018,62.1742427 99.1727039,62.1694338 99.1665015,62.1658523 C99.1629141,62.1637532 99.1589827,62.1627926 99.1553538,62.1608714 C99.1442536,62.1549655 99.132845,62.150204 99.1212171,62.1455256 C99.1106387,62.1412444 99.1002382,62.1368743 99.0894819,62.1336841 C99.0785121,62.130405 99.0673645,62.1283475 99.0561338,62.1261654 C99.0445474,62.1238884 99.0330558,62.1214454 99.0213863,62.120307 C99.0100193,62.1192159 98.9986107,62.1194293 98.9871132,62.1194293 C98.9756631,62.1194293 98.964302,62.1192158 98.952935,62.120307 C98.9412181,62.1214454 98.9296791,62.1238885 98.9180571,62.1261654 C98.906862,62.1283475 98.8958092,62.130405 98.8849224,62.1336367 C98.8739527,62.1368742 98.8633328,62.1413333 98.8525765,62.1457034 C98.8412569,62.1502929 98.8300677,62.1549239 98.8192284,62.1606519 C98.8154216,62.1626621 98.8114013,62.1637116 98.807642,62.1658522 C98.8012618,62.1695641 98.796103,62.1745035 98.7900311,62.1785296 C98.779844,62.1852598 98.7698349,62.1921618 98.7602645,62.1999889 C98.7507771,62.207727 98.7421673,62.2160759 98.733599,62.2246382 C98.7258609,62.2324238 98.7183007,62.2402865 98.7112207,62.2489022 C98.7025635,62.2593917 98.6949618,62.2703614 98.687615,62.281681 C98.6840751,62.2871007 98.6796159,62.2916487 98.6763428,62.2973293 L97.0075096,65.1879334 L93.6698461,65.1879334 C93.6661757,65.1879334 93.6628106,65.188894 93.6591817,65.1890245 C93.6451938,65.1894158 93.6315141,65.191165 93.6177456,65.1931752 C93.6077365,65.1946635 93.5977688,65.195885 93.5880235,65.198162 C93.5757404,65.2010438 93.5639375,65.205153 93.5520072,65.2093512 C93.5418646,65.2128437 93.531725,65.2161228 93.5220212,65.2205403 C93.5107876,65.2256101 93.5002536,65.2319014 93.4895448,65.2381098 C93.4803213,65.2435294 93.4710562,65.2485992 93.462402,65.254766 C93.4524788,65.2617986 93.4434303,65.2699281 93.4342097,65.2780635 C93.4258163,65.2854043 93.4173815,65.2925732 93.4097323,65.3006612 C93.4021246,65.3087432 93.39535,65.3176198 93.388445,65.3264905 C93.380446,65.3366775 93.3727079,65.3468587 93.3658918,65.3578759 C93.3637927,65.3611965 93.3610384,65.3638648 93.3590728,65.3673158 L91.6902395,68.2579139 L88.5596733,68.2579139 L86.8908431,65.3673158 C86.7918839,65.1954522 86.572287,65.1368796 86.4006844,65.2358387 C86.2289928,65.3349698 86.1701592,65.5545667 86.2692933,65.7260864 L87.9381236,68.6166845 L86.372839,71.3279004 L83.2424032,71.3279004 L81.573487,68.4373022 L79.9046538,65.5466981 L81.573487,62.6560999 L83.2424032,59.7654958 L90.1249135,59.7654958 C90.3230926,59.7654958 90.48377,59.6049933 90.48377,59.4067311 C90.48377,59.208463 90.3230926,59.0479606 90.1249135,59.0479606 L76.5669039,59.0479606 L78.0286398,56.5161271 L79.8010632,53.4463186 L81.5734865,50.3763321 L83.3459959,47.3063457 L84.8076429,44.7746456 L86.2692929,47.3063457 L88.0417163,50.3763321 L89.8141367,53.4463186 L91.586649,56.5161271 L93.2554793,59.4067312 L91.6901976,62.1179471 L84.8076429,62.1179471 C84.8036226,62.1179471 84.7999522,62.1189966 84.7959734,62.119127 C84.782949,62.1195658 84.7702271,62.1211787 84.7573777,62.1230168 C84.7464494,62.1245882 84.7355657,62.1259461 84.7249457,62.1284365 C84.7136231,62.1311463 84.7027423,62.1349947 84.6917251,62.138754 C84.6806664,62.1425548 84.6696522,62.1460949 84.6591182,62.1509037 C84.6486732,62.1556652 84.6388361,62.1615711 84.6288714,62.1673406 C84.6189926,62.1730212 84.6090279,62.1785298 84.59976,62.1851709 C84.5902756,62.1919011 84.5816214,62.1996806 84.5727477,62.2074188 C84.5640075,62.215068 84.5552642,62.2224978 84.5473097,62.2309356 C84.5398799,62.2388457 84.5332358,62.2475444 84.5264167,62.2562432 C84.5183732,62.2664718 84.5105491,62.2767893 84.5036441,62.2878895 C84.5015895,62.2912575 84.4988352,62.2939199 84.4968695,62.2973294 L82.7244461,65.3673159 C82.6603679,65.4783359 82.6603679,65.6150606 82.7244461,65.7260865 L84.4968695,68.796067 C84.5633078,68.9112851 84.6839455,68.9756272 84.8079928,68.9756272 C84.8688364,68.9756272 84.9305547,68.9600679 84.9870282,68.92755 C85.1587198,68.828413 85.2175534,68.6088161 85.1184193,68.4373023 L83.449586,65.5466982 L85.0148706,62.8354823 L91.2759615,62.8354823 L89.8141367,65.3673158 C89.7150056,65.5388295 89.7738391,65.7584264 89.9454418,65.8573856 C90.0020013,65.8900814 90.0637195,65.9056407 90.1245632,65.9056407 C90.2486105,65.9056407 90.3692483,65.8413045 90.4356865,65.7260864 L92.1046058,62.8354822 L95.4405645,62.8354822 C95.4410448,62.8354822 95.4414836,62.8356542 95.4419194,62.8356542 C95.4435797,62.8356542 95.445154,62.8350435 95.4468143,62.8350435 C95.4739155,62.8346937 95.5,62.8308928 95.5253164,62.8248624 C95.5334488,62.8229352 95.5410535,62.820012 95.5490081,62.8175156 C95.5685016,62.8113963 95.5871235,62.8039664 95.6050013,62.7947874 C95.6129114,62.7907672 95.6206051,62.7868358 95.6282098,62.7822463 C95.6491028,62.7694798 95.6685963,62.7549701 95.6863881,62.7383613 C95.6891394,62.7358234 95.6923296,62.7339912 95.6949979,62.7312814 C95.7153661,62.7110852 95.7323722,62.6879597 95.7474512,62.6633519 C95.749064,62.6606895 95.7514714,62.6588098 95.7530428,62.6561 L97.5254661,59.5861136 C97.5895473,59.4750936 97.5895473,59.3383689 97.5254661,59.227343 L95.8566388,56.3367449 L97.5254661,53.4463186 L99.2978895,50.3763322 C99.301299,50.3704738 99.3030482,50.3641795 99.3060189,50.3582351 C99.3119663,50.3465211 99.3175579,50.3348072 99.3221949,50.322438 C99.3263041,50.3115097 99.3294468,50.30054 99.3324235,50.2894368 C99.3353942,50.2783781 99.3381041,50.2673194 99.3400252,50.2558249 C99.3422132,50.2428005 99.3432628,50.2298621 99.3439625,50.2167933 C99.3443538,50.2101046 99.3459726,50.2037659 99.3459726,50.1969469 C99.3459726,50.1929711 99.3449231,50.1892562 99.3447927,50.1853219 C99.3443539,50.1722946 99.3427351,50.1595311 99.3409028,50.1466817 C99.339373,50.1357119 99.3379736,50.1248282 99.3354832,50.1142497 C99.3327734,50.1028857 99.328925,50.0920463 99.3251657,50.0810291 C99.3213649,50.0699704 99.3177774,50.0589117 99.3129685,50.0484222 C99.308207,50.0379328 99.3022596,50.0280986 99.2964901,50.0180893 C99.2908095,50.0082106 99.2853484,49.9983319 99.2787428,49.9891084 C99.2718822,49.979449 99.2639722,49.9706644 99.2561036,49.9616602 C99.2486323,49.9531364 99.2413745,49.9446571 99.2331975,49.9368745 C99.224896,49.9290533 99.215806,49.9221009 99.2066685,49.9150209 C99.1969202,49.9074162 99.187172,49.8999865 99.1766409,49.8933838 C99.1730535,49.8911542 99.1701717,49.888228 99.1665013,49.8860844 C99.160204,49.8824585 99.1534324,49.8805343 99.1470048,49.8772998 C99.1359876,49.8717912 99.1250178,49.8665909 99.1134373,49.8622208 C99.1018094,49.8578477 99.0901814,49.8544411 99.07834,49.8513369 C99.067892,49.8485826 99.057533,49.8460033 99.0467352,49.8442125 C99.0330971,49.841894 99.0195479,49.8407586 99.0058209,49.8400588 C98.9995296,49.8397535 98.9935407,49.8381792 98.9871131,49.8381792 L95.4422692,49.8381792 C95.4385099,49.8381792 95.4350143,49.8391427 95.431255,49.8392732 C95.4176614,49.839709 95.4043287,49.8414137 95.3909544,49.8433379 C95.3805065,49.8448677 95.3701475,49.8461782 95.3600079,49.8485381 C95.3482939,49.8513369 95.3369743,49.8553127 95.3255658,49.859247 C95.3148984,49.8629204 95.3041895,49.8663714 95.2940054,49.8710054 C95.2832966,49.8758588 95.2732874,49.8818892 95.2630589,49.8877892 C95.253358,49.8934282 95.2435653,49.8988034 95.2344752,49.9053171 C95.2249018,49.9121361 95.2162031,49.9199602 95.207288,49.9277844 C95.1985892,49.9353476 95.1898905,49.9427329 95.1819774,49.9511262 C95.1745031,49.9590808 95.167862,49.9678211 95.1610429,49.9765198 C95.1529994,49.9867928 95.1451753,49.9970213 95.1382703,50.0081216 C95.1362157,50.0114452 95.1334614,50.014155 95.1314957,50.0175645 L93.3590724,53.087548 C93.2599383,53.2590647 93.3187718,53.4786615 93.4904634,53.5777957 C93.546934,53.6103165 93.6086523,53.6258758 93.6694959,53.6258758 C93.7935432,53.6258758 93.9141839,53.5615367 93.9806221,53.4463186 L95.6494524,50.5557175 L98.365655,50.5557175 L96.9039191,53.087548 L95.1314957,56.1573624 C95.0674174,56.2683824 95.0674174,56.4051071 95.1314957,56.5161271 L96.800323,59.4067312 L95.2350414,62.1179471 L92.5188862,62.1179471 L93.9806221,59.5861136 C94.0447004,59.4750936 94.0447004,59.3383689 93.9806221,59.227343 L92.2081988,56.1573625 L90.5392795,53.2669333 L92.2081988,50.3763322 L93.9806221,47.3063458 C93.9825878,47.3029362 93.9835069,47.2993103 93.9853421,47.2958563 C93.9915059,47.2843173 93.9965313,47.2723395 94.0014261,47.2602342 C94.0055353,47.2500056 94.009775,47.2399075 94.0128792,47.2295041 C94.0161998,47.2184039 94.0182988,47.2070812 94.0205283,47.1956727 C94.0228024,47.1841782 94.0252038,47.1727697 94.0263423,47.1612307 C94.0274333,47.1498221 94.0272169,47.138458 94.0272169,47.1269635 C94.0272169,47.115466 94.0274333,47.1041019 94.0263423,47.0926933 C94.0252038,47.0811543 94.0228024,47.0697457 94.0205283,47.0582513 C94.0182988,47.0468427 94.0161997,47.0355231 94.0128792,47.0244199 C94.009775,47.0140164 94.0055353,47.0039213 94.0014261,46.9936927 C93.9965312,46.9815845 93.9915059,46.9696096 93.9853421,46.9580677 C93.9835069,46.9546167 93.9825878,46.9509877 93.9806221,46.9475782 L92.2081988,43.8775947 C92.1091537,43.7059031 91.8896427,43.6473305 91.7180401,43.7461147 C91.5463485,43.8452487 91.4875149,44.0648456 91.586649,44.2363624 L93.2554793,47.1269635 L91.8974225,49.4792812 L90.4356865,46.9475781 C90.3366414,46.7758865 90.1173084,46.7173168 89.9454418,46.816101 C89.7738391,46.9152321 89.7150056,47.134829 89.8141367,47.3063458 L91.4830559,50.1969469 L90.1249131,52.5492646 L88.663266,50.0175645 L86.9944328,47.1269634 L88.663266,44.2363623 C88.7273443,44.1253394 88.7273443,43.9886146 88.663266,43.8775947 L86.8908427,40.8076082 C86.7918835,40.6357417 86.5722866,40.5773469 86.400684,40.6761282 C86.2289924,40.7752622 86.1701588,40.9948591 86.2692929,41.1663759 L87.9381232,44.056977 L86.5800664,46.4092947 L85.1184193,43.8775946 C85.1150543,43.8717806 85.1105508,43.8671466 85.1068803,43.8615965 C85.0997115,43.8504934 85.0922816,43.83974 85.0838023,43.8294699 C85.0764585,43.8205518 85.0686788,43.8124223 85.0606354,43.8043788 C85.052331,43.7961189 85.0440266,43.7880754 85.0348476,43.7805566 C85.0249688,43.7724271 85.0146099,43.7653027 85.0040314,43.7583532 C84.9981315,43.7545078 84.9931921,43.7496989 84.9870283,43.7461145 C84.9833993,43.7440154 84.9795095,43.7430548 84.9758391,43.7410891 C84.9648248,43.7352307 84.9534163,43.7305107 84.9418328,43.7258323 C84.9312544,43.7215511 84.9207649,43.7171365 84.9099256,43.713902 C84.8989973,43.7106674 84.8879386,43.7086128 84.8767494,43.7064277 C84.865077,43.7041536 84.853538,43.7017047 84.8418241,43.7005692 C84.83046,43.6994752 84.8190959,43.6996946 84.8076429,43.6996946 C84.7961928,43.6996946 84.7848288,43.6994752 84.7734618,43.7005692 C84.7617478,43.7017047 84.7501644,43.7041537 84.7384949,43.7064277 C84.7273918,43.7086127 84.7162915,43.7106673 84.7054078,43.713902 C84.694524,43.7171366 84.68399,43.7215511 84.6733257,43.7258768 C84.6618282,43.7305108 84.650553,43.7352308 84.6395359,43.7410447 C84.6358654,43.7430104 84.6319311,43.7440155 84.6282607,43.7461145 C84.6220109,43.749699 84.6170271,43.7545938 84.6110826,43.7584837 C84.6005932,43.7653472 84.5903646,43.7724271 84.5806163,43.7804262 C84.5713069,43.7880754 84.5628275,43.7962048 84.5544786,43.8045982 C84.5465656,43.8125527 84.5388304,43.8205518 84.5316171,43.8293365 C84.5230932,43.8396985 84.5155775,43.8505378 84.5083197,43.8616824 C84.5047352,43.867191 84.5001902,43.8718221 84.4968696,43.8775945 L82.7244462,46.947578 L81.055527,49.8381791 L67.0832386,49.8381791 C67.0794793,49.8381791 67.0759837,49.8391842 67.0722244,49.8393146 C67.0585863,49.8397534 67.045255,49.8414137 67.0317934,49.8433378 C67.0214329,49.8448676 67.0111183,49.8461336 67.0010217,49.8485381 C66.9891759,49.8513369 66.9778118,49.8553126 66.9663603,49.8592914 C66.9557374,49.8629618 66.9451605,49.8663713 66.9350193,49.8709608 C66.9242675,49.8758587 66.9141708,49.8819335 66.9038548,49.887878 C66.8942385,49.8934725 66.8845347,49.8988478 66.8754876,49.9052725 C66.8658713,49.9120915 66.8571296,49.9200045 66.8481685,49.9278287 C66.8395142,49.9353889 66.83086,49.9427772 66.8229929,49.9511261 C66.8154741,49.9590806 66.80883,49.9678209 66.802011,49.9765196 C66.7939689,49.9867926 66.7861448,49.9970212 66.7792383,50.0081215 C66.7771852,50.011445 66.7744309,50.0141548 66.7724638,50.0175643 L65.0000404,53.0875478 C64.9980732,53.0909573 64.9971557,53.0946307 64.9953204,53.0980817 C64.9891136,53.1096652 64.9840868,53.1215986 64.9792349,53.1337068 C64.9751272,53.1439353 64.9708861,53.153986 64.9677834,53.164348 C64.9644613,53.1755372 64.9623637,53.1868568 64.9600897,53.1983098 C64.9578617,53.2097599 64.9554572,53.221124 64.9543202,53.232666 C64.9532277,53.2440715 64.9534471,53.2554386 64.9534471,53.2669331 C64.9534471,53.2784277 64.9532277,53.2897917 64.9543202,53.3012003 C64.9554572,53.3127393 64.9578617,53.3241479 64.9601342,53.3356454 C64.9623638,53.347054 64.9644614,53.3583736 64.9677834,53.3694768 C64.9708861,53.3798773 64.9751272,53.3899754 64.9792349,53.400204 C64.9841313,53.4123122 64.9891567,53.424287 64.9953204,53.4358261 C64.9971557,53.43928 64.9980732,53.442909 65.0000404,53.4463185 L66.7724638,56.516127 C66.838902,56.6313451 66.9595412,56.6956872 67.0835885,56.6956872 C67.1444321,56.6956872 67.2061504,56.680128 67.26271,56.6474321 C67.4343141,56.5484729 67.4931476,56.328876 67.3940136,56.1573623 L65.7251833,53.2669331 L67.290422,50.5557173 L70.4209022,50.5557173 L72.089734,53.4463184 L73.8622434,56.5161269 C73.9286816,56.6313451 74.0493194,56.6956871 74.1733696,56.6956871 C74.2342132,56.6956871 74.2959286,56.6801279 74.352491,56.647432 C74.5240937,56.5484729 74.5829272,56.328876 74.4837932,56.1573623 L72.7112838,53.0875478 L71.2495479,50.5557173 L73.9658364,50.5557173 L75.6346667,53.4463184 C75.701105,53.5615365 75.8217427,53.6258756 75.94579,53.6258756 C76.0066336,53.6258756 76.0683519,53.6103164 76.1248254,53.5777955 C76.296517,53.4786615 76.3553506,53.2590646 76.2562165,53.0875478 L74.7944805,50.5557173 L80.6412464,50.5557173 L79.1795134,53.0875478 L77.4070901,56.1573623 L75.7382568,59.0479604 L72.6076906,59.0479604 L70.9388604,56.1573623 L69.166437,53.0875478 C69.0673904,52.9158591 68.8480559,52.8567617 68.6761908,52.9562457 C68.5045866,53.0552048 68.4457532,53.2748017 68.5448872,53.4463184 L70.3173105,56.5161269 L72.0897339,59.5861134 C72.0913052,59.5888232 72.0937097,59.5907029 72.0953284,59.5933712 C72.1104075,59.6179791 72.1274105,59.6410986 72.1477787,59.6612948 C72.1504441,59.6640046 72.1536371,59.6658369 72.1563885,59.6683747 C72.1741803,59.6849835 72.1936738,59.6994933 72.2145668,59.7122597 C72.2221715,59.7168492 72.2298652,59.7207805 72.2377783,59.7248008 C72.2556531,59.7339798 72.274275,59.7414156 72.2937686,59.7475349 C72.3017231,59.7500253 72.3093308,59.7529546 72.3174603,59.7548758 C72.3427678,59.7609062 72.368861,59.764713 72.3959623,59.7650569 C72.3976226,59.7650569 72.3991969,59.7656736 72.4008572,59.7656736 C72.401296,59.7656736 72.4017318,59.7654957 72.4022121,59.7654957 L75.9437353,59.7654957 C75.9442186,59.7654957 75.9446545,59.7656736 75.9450932,59.7656736 C75.9455291,59.7656736 75.9459648,59.7654957 75.9464481,59.7654957 L78.868826,59.7654957 L77.4070901,62.2973292 C77.307956,62.4688489 77.3667895,62.6884458 77.5384811,62.7875769 C77.5949517,62.8200948 77.65667,62.8356541 77.7175136,62.8356541 C77.8415638,62.8356541 77.9622016,62.7713179 78.0286398,62.6560998 L79.6974701,59.7654957 L82.4137587,59.7654957 L80.9519368,62.2973291 L79.2831035,65.1879333 L76.1526233,65.1879333 L74.483793,62.2973291 C74.3847479,62.1256375 74.165237,62.0670708 73.9936343,62.165852 C73.8219427,62.2649831 73.7631092,62.48458 73.8622433,62.6560997 L75.6346666,65.7260861 C75.6362409,65.7287959 75.6386454,65.7306757 75.6402612,65.733338 C75.6553402,65.7579459 75.6723433,65.7810713 75.6927115,65.8012616 C75.6953798,65.8039714 75.6985699,65.8058096 75.7013242,65.8083474 C75.719113,65.8249562 75.7386066,65.839466 75.7594996,65.8522265 C75.7671072,65.856816 75.7747979,65.8607533 75.782711,65.8647735 C75.8005887,65.8739526 75.8192077,65.8813823 75.8387013,65.8875017 C75.8466588,65.8899921 75.8542635,65.8929214 75.862393,65.8948485 C75.8877006,65.9008789 75.9137967,65.9046797 75.940895,65.9050296 C75.9425553,65.9050296 75.9441296,65.9056404 75.94579,65.9056404 C75.9462288,65.9056404 75.9466646,65.9054684 75.9471449,65.9054684 L79.2831036,65.9054684 L80.9519368,68.7960665 L82.6208531,71.6866706 L81.055527,74.3977145 L77.9250467,74.3977145 L76.2562165,71.5072883 C76.2542508,71.5038787 76.2514965,71.5011689 76.2493974,71.4978424 C76.2425339,71.4867837 76.2347987,71.4765552 76.2267997,71.466374 C76.2198947,71.4575448 76.2132061,71.4487572 76.2056014,71.4407166 C76.1979078,71.4325871 76.1894284,71.4253293 76.1809935,71.417941 C76.1718145,71.409859 76.1627659,71.401771 76.1528872,71.39478 C76.1443189,71.3886607 76.1351399,71.3835849 76.1260053,71.3782542 C76.1151661,71.3719155 76.1044572,71.3655352 76.0930931,71.3603765 C76.0837391,71.3561368 76.0739049,71.3529882 76.0641566,71.3495787 C76.0518319,71.3452086 76.0395488,71.3409689 76.0268298,71.3379982 C76.0175619,71.3358576 76.0081219,71.3346776 75.9986345,71.3332782 C75.9843442,71.3311377 75.9701814,71.3293469 75.9556686,71.3289496 C75.9521731,71.3288192 75.9489385,71.3279001 75.9454401,71.3279001 L65.3108152,71.3279001 C65.1126361,71.3279001 64.9519602,71.4884026 64.9519602,71.6866706 C64.9519602,71.8849387 65.1126361,72.0454353 65.3108152,72.0454353 L75.7382568,72.0454353 L77.0964026,74.3977145 L63.7454891,74.3977145 L62.0766573,71.5072883 C61.9776122,71.3355966 61.7582762,71.2764963 61.5864111,71.3759832 C61.414807,71.4749423 61.3559735,71.6945392 61.4551075,71.8660529 L62.916842,74.3977145 L60.2006423,74.3977145 L58.6354037,71.6866706 L60.2006423,68.9754548 L67.0815338,68.9754548 C67.0820156,68.9754548 67.0824514,68.9756268 67.0828887,68.9756268 C67.0845504,68.9756268 67.0861233,68.9750161 67.0877851,68.9750161 C67.1148848,68.9746662 67.1409796,68.9708653 67.1662871,68.964829 C67.1744166,68.9629078 67.1820228,68.9599786 67.1899773,68.9574881 C67.2094724,68.9513688 67.2280928,68.943939 67.2459691,68.93476 C67.2538807,68.9307397 67.2615744,68.9268025 67.2691791,68.9222129 C67.2900721,68.9094524 67.3095671,68.8949368 67.3273574,68.878328 C67.3301102,68.875796 67.3333018,68.8739578 67.3359672,68.871248 C67.3563369,68.8510577 67.37334,68.8279323 67.388419,68.8033244 C67.3900362,68.8006561 67.3924407,68.7987765 67.3940135,68.7960666 L68.855662,66.2643694 L70.3173105,68.7960666 C70.3837488,68.9112847 70.5043865,68.9756268 70.6284353,68.9756268 C70.6892789,68.9756268 70.7509957,68.9600675 70.8074692,68.9275496 C70.9791609,68.8284126 71.0379944,68.6088157 70.9388603,68.4373019 L69.1664369,65.3673155 L67.4976052,62.4767113 L68.855662,60.1243966 L70.3173105,62.6560996 L72.0897339,65.7260861 L73.8622433,68.7960666 C73.8638176,68.7987764 73.866222,68.8006561 73.8678378,68.8033244 C73.8829168,68.8279323 73.8999199,68.8510577 73.9202911,68.871248 C73.9229564,68.8739578 73.9261465,68.875796 73.9289009,68.878328 C73.9466897,68.8949368 73.9661832,68.9094525 73.9870792,68.9222129 C73.9946839,68.9268025 74.0023775,68.9307397 74.0102877,68.93476 C74.0281654,68.943939 74.0467843,68.9513687 74.0662809,68.9574881 C74.0742355,68.9599785 74.0818402,68.9629078 74.0899697,68.964829 C74.1152772,68.9708653 74.1413734,68.9746662 74.1684717,68.9750161 C74.1701349,68.9750161 74.1717063,68.9756268 74.1733696,68.9756268 C74.1738054,68.9756268 74.1742412,68.9754548 74.1747245,68.9754548 L77.5106803,68.9754548 L79.1795135,71.8660529 C79.2459518,71.9812711 79.3665895,72.0456131 79.4906367,72.0456131 C79.5514804,72.0456131 79.6131987,72.0300539 79.6696722,71.99753 C79.8413638,71.8983989 79.9001944,71.678802 79.8010632,71.5072882 L78.0286399,68.4373018 C78.0266712,68.4338922 78.0239199,68.4312239 78.0218653,68.4278618 C78.0149574,68.4167556 78.0071332,68.4064441 77.9990927,68.3962155 C77.9922736,68.3875168 77.9856295,68.3788181 77.9781997,68.3709079 C77.9702422,68.3624701 77.9615019,68.3550403 77.9527587,68.3473911 C77.943888,68.339653 77.9352308,68.3318734 77.9257464,68.3251432 C77.9164815,68.3184961 77.9065138,68.3129875 77.896638,68.307307 C77.8866704,68.3015375 77.8768361,68.2956376 77.8663881,68.2908701 C77.8558542,68.2860672 77.84484,68.2825272 77.8337813,68.2787204 C77.822767,68.2749611 77.8118832,68.2711187 77.8005636,68.2684088 C77.7899407,68.2659125 77.779057,68.2645605 77.7681316,68.2629892 C77.7552792,68.261151 77.7425602,68.2595322 77.7295359,68.2590934 C77.7255571,68.258963 77.7218867,68.2579135 77.7178634,68.2579135 L74.3802029,68.2579135 L72.7112836,65.3673153 L70.9388603,62.2973289 L69.1664369,59.2273425 C69.1631149,59.2215315 69.1585698,59.2169419 69.1549854,59.2113918 C69.147729,59.2002856 69.1402548,59.1894463 69.1317309,59.1791348 C69.124476,59.1703056 69.116695,59.1622176 69.1087404,59.1542601 C69.1004359,59.1459112 69.0920426,59.1378291 69.0827761,59.130263 C69.0728989,59.1221335 69.0625399,59.115012 69.0519185,59.1080151 C69.04606,59.1041727 69.0411651,59.0994053 69.0350458,59.0958654 C69.0314613,59.0938137 69.027616,59.0928057 69.0239871,59.0908845 C69.0128409,59.0849846 69.0013894,59.0802171 68.9897629,59.0754972 C68.9791845,59.071216 68.968695,59.0667984 68.9578987,59.0636083 C68.9470148,59.0603767 68.9359132,59.0583191 68.924767,59.0560896 C68.9130961,59.0538185 68.9016001,59.0513696 68.8898862,59.0502312 C68.8785221,59.0491401 68.8671135,59.0493595 68.8556619,59.0493595 C68.8442104,59.0493595 68.8328019,59.0491401 68.8214377,59.0502312 C68.8097223,59.0513696 68.7982278,59.0538186 68.7865569,59.0560896 C68.7754106,59.0583191 68.764309,59.0603767 68.7534252,59.0636083 C68.7426289,59.0667984 68.732138,59.071216 68.721561,59.0754972 C68.7099346,59.0802171 68.6984815,59.0849845 68.6873368,59.0908845 C68.6837079,59.0928057 68.6798625,59.0938137 68.6762781,59.0958654 C68.6701588,59.0994053 68.6652624,59.1041727 68.6594054,59.1080151 C68.648784,59.115012 68.638425,59.1221335 68.6285463,59.130263 C68.6192798,59.1378291 68.610888,59.1459112 68.6025835,59.1542601 C68.594629,59.1622176 68.5868479,59.1703056 68.5795915,59.1791348 C68.5710692,59.1894463 68.5635949,59.2002857 68.5563385,59.2113918 C68.5527541,59.2169419 68.548209,59.2215315 68.544887,59.2273425 L66.8760552,62.1179466 L63.5383057,62.1179466 C63.534284,62.1179466 63.5306121,62.1189961 63.5266347,62.1191265 C63.5136089,62.1195654 63.5008899,62.1211782 63.488039,62.1230164 C63.4771122,62.1245877 63.4662284,62.1259456 63.455607,62.1284361 C63.4442859,62.1311459 63.4334021,62.1349942 63.4223879,62.1387535 C63.4113292,62.1425544 63.4003134,62.1460944 63.3897795,62.1509033 C63.379333,62.1556647 63.3694988,62.1615706 63.3595327,62.1673401 C63.3496554,62.1730207 63.3396892,62.1785293 63.3304228,62.1851705 C63.3209369,62.1919006 63.3122826,62.1996802 63.3034105,62.2074183 C63.2946688,62.2150675 63.2859255,62.2224974 63.277971,62.2309352 C63.2705412,62.2388452 63.2638971,62.247544 63.257078,62.2562427 C63.249036,62.2664713 63.2412118,62.2767888 63.2343054,62.287889 C63.2322507,62.2912571 63.2294965,62.2939195 63.2275308,62.297329 L61.558699,65.1879331 L58.2210363,65.1879331 C58.0228571,65.1879331 57.8621804,65.3484296 57.8621804,65.5466978 C57.8621804,65.7449659 58.0228571,65.9054684 58.2210363,65.9054684 L61.7641776,65.9054684 C61.7646579,65.9054684 61.7650951,65.9056404 61.7655325,65.9056404 C61.7659698,65.9056404 61.766407,65.9054684 61.7668874,65.9054684 L65.310815,65.9054684 C65.5089942,65.9054684 65.6696716,65.7449658 65.6696716,65.5466978 C65.6696716,65.3484297 65.5089942,65.1879331 65.310815,65.1879331 L62.3873446,65.1879331 L63.7454889,62.8354819 L66.8760122,62.8354819 L68.4412953,65.5466978 L66.8760122,68.2579136 L59.9934589,68.2579136 C59.9894387,68.2579136 59.9857668,68.2589632 59.9817895,68.2590936 C59.9687636,68.2595324 59.9560002,68.2611512 59.9431493,68.2629893 C59.9322225,68.2645192 59.9213817,68.2659126 59.9108048,68.268409 C59.8993962,68.2711188 59.8884695,68.2749612 59.8773663,68.2788096 C59.866395,68.2825689 59.8554238,68.2861089 59.8449773,68.2908704 C59.8344004,68.2956793 59.8244787,68.3016267 59.814425,68.3074377 C59.8046337,68.3131242 59.7948424,68.3185438 59.7856634,68.3250545 C59.7760471,68.3318735 59.7672179,68.3398251 59.7582582,68.3476522 C59.749647,68.3551709 59.7410801,68.3624703 59.7332561,68.3707717 C59.7256944,68.3788182 59.7189628,68.3876474 59.7120563,68.3964291 C59.7041017,68.4066162 59.6963651,68.4168032 59.689503,68.4278619 C59.6874054,68.4311825 59.6846511,68.4338449 59.682684,68.4373018 L57.9102614,71.5072883 C57.9082942,71.5106978 57.9073766,71.5143682 57.9055406,71.5178192 C57.8993338,71.5293997 57.894307,71.5413361 57.8894551,71.5534443 C57.8853467,71.5636728 57.881107,71.5737235 57.8780035,71.5840826 C57.8746815,71.5952717 57.8725832,71.6065913 57.8703106,71.6180473 C57.868081,71.6294974 57.8656774,71.6408644 57.8645411,71.6524034 C57.8634478,71.663812 57.8636665,71.6751731 57.8636665,71.6866706 C57.8636665,71.6981681 57.8634479,71.7095292 57.8645411,71.7209378 C57.8656774,71.7324768 57.868081,71.7438854 57.8703544,71.7553829 C57.8725832,71.7667915 57.8746815,71.7781111 57.8780035,71.7892113 C57.8811069,71.7996178 57.8853467,71.8097099 57.8894551,71.8199385 C57.8943507,71.8320467 57.8993775,71.8440245 57.9055406,71.8555636 C57.9073766,71.8590146 57.9082942,71.8626435 57.9102614,71.866053 L59.3719965,74.3977146 L53.5251427,74.3977146 L54.9868778,71.866053 C55.0860112,71.6945393 55.0271784,71.4749424 54.8555742,71.3759832 C54.6836209,71.2764964 54.4643739,71.3355967 54.365328,71.5072883 L52.6964963,74.3977146 L49.9803841,74.3977146 L51.4420318,71.866053 L54.676103,66.2643694 L56.1378382,68.7960666 C56.2042771,68.9112847 56.3249156,68.9756268 56.4489629,68.9756268 C56.5098065,68.9756268 56.5715248,68.9600675 56.6280851,68.9273717 C56.7996885,68.8284125 56.858522,68.6088156 56.7593887,68.4373019 L55.0904694,65.5466978 L56.7593887,62.6560996 L58.2210364,60.1243966 L59.6826842,62.6560996 C59.7491224,62.7713178 59.8697616,62.8356539 59.9938089,62.8356539 C60.0546525,62.8356539 60.1163708,62.8200947 60.1728429,62.7875767 C60.3445345,62.6884457 60.403368,62.4688488 60.3042339,62.2973291 L58.6354037,59.4067309 L59.993459,57.0544102 L61.4551075,59.5861133 C61.4566803,59.5888231 61.4590848,59.5907028 61.4607021,59.5933711 C61.4757826,59.617979 61.4927856,59.6410985 61.5131538,59.6612947 C61.5158192,59.6640045 61.5190108,59.6658368 61.5217651,59.6683747 C61.5395539,59.6849835 61.5590489,59.6994932 61.5799419,59.7122596 C61.5875466,59.7168492 61.5952403,59.7207804 61.6031519,59.7248007 C61.6210282,59.7339798 61.6396486,59.7414155 61.6591437,59.7475348 C61.6670982,59.7500252 61.6747044,59.7529545 61.6828339,59.7548757 C61.7081415,59.7609061 61.7342361,59.7647129 61.7613359,59.7650568 C61.7629977,59.7650568 61.7645705,59.7656736 61.7662323,59.7656736 C61.7666697,59.7656736 61.7671069,59.7654957 61.7675872,59.7654957 L65.3098102,59.7654957 C65.310292,59.7654957 65.3107277,59.7656736 65.3111651,59.7656736 C65.3135265,59.7656736 65.3159295,59.7647959 65.3183339,59.7647544 C65.3442967,59.7641852 65.3693863,59.7606867 65.3936888,59.7549172 C65.4017324,59.752996 65.4094245,59.7501083 65.4173361,59.7476178 C65.438229,59.7410656 65.4581614,59.7328887 65.4772176,59.7228381 C65.4814573,59.7205611 65.4860913,59.7198614 65.4902879,59.7174184 C65.4937404,59.7154082 65.4964073,59.7126984 65.4997723,59.7105993 C65.5107866,59.7037329 65.5209721,59.6960006 65.5311562,59.6880432 C65.5399409,59.6811826 65.5486827,59.674494 65.5566817,59.6669753 C65.565075,59.6590178 65.5725048,59.650325 65.580111,59.6416262 C65.5878477,59.6327496 65.5956272,59.6240983 65.6024018,59.614611 C65.6090029,59.605343 65.6145101,59.5954228 65.6202351,59.5855026 C65.6260061,59.5754934 65.6319505,59.5656977 65.636715,59.5552082 C65.6415224,59.5447187 65.6450194,59.5337489 65.6488217,59.5227318 C65.652624,59.5116731 65.6564709,59.5007922 65.6591808,59.4894252 C65.6616727,59.4788053 65.6630706,59.4679244 65.6646004,59.4569962 C65.6664371,59.4441467 65.6680544,59.4313803 65.6684918,59.4183529 C65.6686222,59.4144216 65.6696717,59.4107037 65.6696717,59.4067309 C65.6696717,59.3999119 65.6680544,59.3936146 65.6676601,59.3868845 C65.6669618,59.3738157 65.6659123,59.3608773 65.6637273,59.3478499 C65.6618031,59.3363583 65.6590932,59.3252997 65.6561211,59.3141936 C65.6531489,59.3030934 65.6500017,59.2921651 65.645894,59.2812368 C65.641217,59.2688677 65.6356654,59.2571093 65.629721,59.2453983 C65.6267042,59.2394508 65.6249565,59.233201 65.6215915,59.2273426 L63.8490806,56.1573621 C63.750034,55.9856705 63.5306995,55.9270978 63.3588344,56.0258791 C63.1872302,56.1250161 63.1283967,56.344613 63.2275308,56.5161268 L64.6893527,59.0479602 L61.9731086,59.0479602 L60.4078255,56.3367444 L62.0766572,53.4463182 L63.8490805,50.3763317 L65.6215914,47.3063453 C65.720724,47.1348285 65.6618905,46.9152317 65.4902878,46.8161006 C65.3183338,46.7173164 65.0990867,46.775886 65.0000401,46.9475777 L63.2275307,50.0175641 L61.4551074,53.0875476 L59.682684,56.157362 L56.137838,62.297329 L54.3653279,65.3673154 L50.8204819,71.5072883 L49.0480587,74.5770968 C48.9839804,74.6881168 48.9839804,74.8248415 49.0480587,74.9358615 C49.1121368,75.0468874 49.2305899,75.1154217 49.3588338,75.1154217 L120.256457,75.1154217 C120.256546,75.1154217 120.256588,75.1154217 120.256629,75.1154217 C120.256718,75.1154217 120.25676,75.1154217 120.256807,75.1154217 C120.257198,75.1154217 120.257596,75.1154217 120.258029,75.1154217 C120.286443,75.1154217 120.313761,75.110921 120.34029,75.1045408 C120.347459,75.1028331 120.354278,75.1002122 120.361358,75.0980242 C120.383256,75.091294 120.404063,75.0827258 120.423951,75.0721534 C120.427841,75.0700543 120.43208,75.0693961 120.435929,75.0671666 C120.439119,75.0653343 120.441609,75.0627964 120.444669,75.0608753 C120.456338,75.0536589 120.467095,75.0454879 120.477803,75.0370501 C120.486105,75.0305394 120.494412,75.0242007 120.501972,75.0170792 C120.510713,75.0088608 120.518451,74.9998122 120.526319,74.9907636 C120.533797,74.9821538 120.541357,74.9737575 120.547909,74.9645785 C120.554684,74.9551387 120.560282,74.9450406 120.566093,74.934901 Z" id="Path-Copy" fill="#BDBDBD" fill-rule="nonzero"></path>
            </g>
        </g>
    </g>
</svg>