<?xml version="1.0" encoding="UTF-8"?>
<svg width="151px" height="131px" viewBox="0 0 151 131" version="1.1" xmlns="http://www.w3.org/2000/svg" xmlns:xlink="http://www.w3.org/1999/xlink">
    <title>Path Copy</title>
    <g id="Page-1" stroke="none" stroke-width="1" fill="none" fill-rule="evenodd">
        <g id="Artboard" transform="translate(-225.000000, -40.000000)" fill="#000000" fill-rule="nonzero">
            <path d="M375.511802,170.256288 C375.523749,170.235612 375.53607,170.215297 375.545909,170.193598 C375.556023,170.17135 375.563555,170.148092 375.571549,170.124747 C375.579455,170.101677 375.587549,170.078781 375.593248,170.054974 C375.598485,170.032727 375.601428,170.009743 375.604646,169.98676 C375.608512,169.959736 375.611904,169.932899 375.612827,169.905501 C375.613101,169.897233 375.615308,169.889414 375.615308,169.881046 C375.615308,169.866705 375.611904,169.853474 375.611081,169.839319 C375.609609,169.811822 375.607402,169.784623 375.602813,169.757225 C375.59876,169.733045 375.593061,169.709787 375.586813,169.686442 C375.580565,169.663097 375.573943,169.640113 375.565301,169.61713 C375.555462,169.591116 375.543789,169.566387 375.531293,169.541745 C375.524946,169.529249 375.521267,169.516105 375.514196,169.503784 L371.786584,163.04762 L368.058785,156.591083 L364.331173,150.134545 L360.603561,143.678007 L356.875949,137.221469 L353.148336,130.764943 L349.42055,124.308767 L345.692937,117.852235 L341.965325,111.395698 L338.237713,104.939166 L334.510101,98.4826279 L330.782302,92.02609 L327.05469,85.5699263 L323.327078,79.1133884 L319.599472,72.6568536 L315.87186,66.2003187 L312.144061,59.7437808 L308.416455,53.287246 L304.688843,46.8307112 L300.96123,40.3745427 C300.95406,40.3621329 300.944501,40.3522966 300.936776,40.3405306 C300.921792,40.3175488 300.906441,40.2953028 300.888976,40.2739764 C300.872982,40.254488 300.855885,40.2367453 300.838326,40.2191882 C300.821871,40.2028252 300.805322,40.18683 300.787122,40.1717545 C300.764413,40.1530001 300.740793,40.1366387 300.716338,40.1208259 C300.705488,40.1138412 300.696478,40.104923 300.68508,40.0983963 C300.678464,40.0946286 300.671474,40.0928811 300.664858,40.0892039 C300.638751,40.0752321 300.611908,40.0638324 300.584603,40.052986 C300.564657,40.0450796 300.545171,40.0368068 300.524944,40.0307399 C300.500127,40.0232013 300.474937,40.0185124 300.449565,40.013641 C300.426401,40.009136 300.403605,40.0041727 300.380347,40.0019669 C300.356172,40 300.332085,40 300.307724,40 C300.283363,40 300.259188,40 300.235008,40.0019669 C300.211756,40.0042645 300.188773,40.0091358 300.165608,40.013641 C300.140324,40.0185123 300.115233,40.0232013 300.090591,40.0306479 C300.070189,40.0368068 300.050423,40.0451715 300.03029,40.0531699 C300.003172,40.0639242 299.976604,40.0752321 299.950864,40.0890198 C299.944061,40.0926971 299.936891,40.0945366 299.930181,40.0983963 C299.918602,40.1051071 299.909405,40.1141171 299.898375,40.1212862 C299.874294,40.1369135 299.850849,40.1530926 299.828514,40.1714791 C299.810033,40.1867384 299.79321,40.2030096 299.776481,40.2197405 C299.759203,40.2370217 299.742286,40.2544885 299.726567,40.273701 C299.708915,40.2951194 299.69347,40.3176414 299.678399,40.3407152 C299.670767,40.3524812 299.661115,40.3622256 299.654038,40.3745434 L295.926426,46.8307119 L292.198633,53.2872467 L288.471021,59.7437815 L284.743408,66.2003194 L281.015796,72.6568542 L277.288184,79.113389 L273.560391,85.5699269 L269.832779,92.0260907 L266.105167,98.4826286 L262.377555,104.939167 C262.169068,105.29988 262.292798,105.761718 262.653886,105.970208 C262.772653,106.038603 262.902454,106.071326 263.030415,106.071326 C263.291304,106.071326 263.545019,105.936014 263.684746,105.693696 L266.758763,100.369231 L269.832779,105.693696 C269.972507,105.936014 270.226222,106.071326 270.487111,106.071326 C270.615072,106.071326 270.74487,106.038603 270.86364,105.970208 C271.224727,105.761718 271.348461,105.29988 271.139971,104.939167 L267.630224,98.8598968 L270.922102,93.1578888 L277.506053,93.1578888 L281.015797,99.2371586 L284.52554,105.316428 L281.233571,111.018436 L275.520995,111.018436 L278.595376,105.693696 C278.73014,105.460202 278.73014,105.172654 278.595376,104.939167 L274.867583,98.4826286 C274.65946,98.1211732 274.197803,97.9972587 273.836535,98.2064787 C273.475634,98.4146013 273.351901,98.8764391 273.560391,99.2371586 L277.070322,105.316428 L273.778253,111.018436 L266.758763,111.018436 C266.341969,111.018436 266.004049,111.355985 266.004049,111.772966 C266.004049,112.189941 266.341969,112.527496 266.758763,112.527496 L274.210399,112.527496 C274.211409,112.527496 274.212332,112.527864 274.213248,112.527864 C274.214171,112.527864 274.215088,112.527496 274.216098,112.527496 L281.665804,112.527496 C281.66682,112.527496 281.667737,112.527864 281.66866,112.527864 C281.669576,112.527864 281.670493,112.527496 281.671509,112.527496 L289.121028,112.527496 C289.122038,112.527496 289.122961,112.527864 289.123877,112.527864 C289.127369,112.527864 289.13068,112.526573 289.134172,112.526573 C289.191169,112.525844 289.246046,112.517844 289.299277,112.505155 C289.316374,112.501115 289.332368,112.494954 289.349097,112.489716 C289.390101,112.476847 289.429259,112.461215 289.466858,112.44191 C289.483493,112.433455 289.499674,112.425181 289.515668,112.415529 C289.559608,112.388685 289.600612,112.35817 289.638024,112.323233 C289.643816,112.317902 289.650525,112.314042 289.656131,112.308343 C289.698968,112.265875 289.734727,112.217245 289.766446,112.165492 C289.769844,112.159881 289.774901,112.155927 289.778212,112.150228 L293.505824,105.693696 L297.233617,99.2371586 C297.240788,99.2248439 297.244467,99.2116063 297.250715,99.1991044 C297.263216,99.1744624 297.274982,99.1498266 297.284728,99.1238129 C297.293371,99.1008294 297.299986,99.0777587 297.30624,99.0544075 C297.312488,99.0311498 297.318187,99.0078921 297.322234,98.9837177 C297.326829,98.9563259 297.329036,98.929115 297.330508,98.9016297 C297.331337,98.8875627 297.334736,98.8742316 297.334736,98.8598966 C297.334736,98.8515288 297.332528,98.843716 297.332254,98.8354417 C297.331337,98.8080499 297.327933,98.781207 297.324073,98.7540894 C297.320856,98.731106 297.317913,98.7083097 297.312675,98.6860622 C297.306976,98.6620686 297.298795,98.6389918 297.290795,98.6156466 C297.282889,98.5926632 297.275537,98.5695925 297.265424,98.5477129 C297.25531,98.5252844 297.242627,98.5043212 297.230306,98.4829029 C297.218447,98.4625882 297.207236,98.44218 297.19363,98.4231499 C297.178921,98.4023737 297.161917,98.3834371 297.145001,98.3641326 C297.12965,98.346761 297.114847,98.3292958 297.097937,98.3133022 C297.080098,98.2963858 297.060425,98.2814023 297.040759,98.2661444 C297.020719,98.2506061 297.000859,98.2353482 296.979347,98.2218363 C296.971628,98.2170538 296.965374,98.2107125 296.957474,98.2061108 C296.944049,98.1983914 296.929708,98.1943448 296.915922,98.1875419 C296.892845,98.1759629 296.86968,98.1649326 296.845232,98.1557355 C296.821326,98.1467317 296.797332,98.1398354 296.773064,98.1334007 C296.750455,98.1274272 296.727933,98.1218155 296.704488,98.1178623 C296.676454,98.1132669 296.648688,98.1109723 296.620561,98.1094072 C296.606862,98.1086715 296.593905,98.1053606 296.580019,98.1053606 L289.560344,98.1053606 L286.0506,92.0260908 L282.540856,85.9471889 L286.0506,79.8679192 C286.25909,79.5071995 286.135357,79.0453619 285.774269,78.8368776 C285.413369,78.6291229 284.951712,78.7523016 284.743409,79.1133892 L281.015797,85.5699271 C280.881033,85.803415 280.881033,86.0909629 281.015797,86.3244571 L284.743409,92.7806208 L288.471021,99.2371587 C288.474326,99.2428578 288.479382,99.2468111 288.482787,99.2524166 C288.5145,99.304176 288.550259,99.3528053 288.593096,99.395274 C288.598701,99.4009731 288.605417,99.4048327 288.611203,99.410164 C288.648622,99.4450942 288.689619,99.4756162 288.733559,99.5024591 C288.749553,99.5121115 288.765733,99.5203857 288.782375,99.5288408 C288.819968,99.5481453 288.859132,99.563771 288.90013,99.5766408 C288.916859,99.5818848 288.932859,99.588039 288.949956,99.5920857 C289.003181,99.6047746 289.058058,99.6127683 289.115055,99.613504 C289.118547,99.613504 289.121858,99.6147947 289.125349,99.6147947 C289.126272,99.6147947 289.127189,99.6144268 289.128199,99.6144268 L295.273014,99.6144268 L292.198633,104.939167 L288.688883,111.018436 L282.9764,111.018436 L286.0506,105.693696 C286.185364,105.460202 286.185364,105.172654 286.0506,104.939167 L282.322988,98.4826286 L278.595376,92.0260907 C278.591242,92.0189201 278.585449,92.0133145 278.581128,92.0062374 C278.566606,91.9828862 278.550151,91.9611934 278.533235,91.9396816 C278.518894,91.9213872 278.50492,91.9030928 278.489294,91.8864568 C278.472565,91.8687173 278.454177,91.8530853 278.435795,91.8369982 C278.417133,91.8207303 278.398932,91.8043688 278.378979,91.7902083 C278.359494,91.776235 278.338537,91.764656 278.317761,91.7527029 C278.296798,91.7405689 278.276115,91.7281607 278.254148,91.7181404 C278.231994,91.7080268 278.20883,91.7005817 278.185572,91.6925819 C278.162402,91.6846756 278.139512,91.6765883 278.115705,91.6708893 C278.09337,91.6656517 278.070481,91.662802 278.047497,91.6594911 C278.020467,91.6556314 277.993717,91.652227 277.966326,91.6513103 C277.957958,91.651036 277.950239,91.6488287 277.941784,91.6488287 L271.793383,91.6488287 L274.867583,86.3244567 L278.595376,79.8679188 L282.10512,73.7886491 L288.68879,73.7886491 L291.980765,79.490657 L288.471021,85.5699268 C288.336257,85.8034147 288.336257,86.0909626 288.471021,86.3244567 L292.198633,92.7806205 C292.338361,93.0229438 292.592076,93.1582565 292.852962,93.1582565 C292.980923,93.1582565 293.110724,93.1255335 293.229675,93.0567704 C293.590582,92.8486478 293.714309,92.38681 293.505825,92.0260905 L289.996075,85.9471886 L293.28805,80.2451868 L300.305518,80.2451868 C300.306528,80.2451868 300.307451,80.2455548 300.308367,80.2455548 C300.30929,80.2455548 300.310206,80.2451868 300.311217,80.2451868 L314.78253,80.2451868 L318.29228,86.3244566 C318.432008,86.5667737 318.685723,86.7020863 318.946609,86.7020863 C319.07457,86.7020863 319.204371,86.6693634 319.323141,86.6009682 C319.684228,86.392484 319.807956,85.9306462 319.599472,85.5699266 L315.87186,79.1133887 C315.867719,79.1062181 315.861933,79.1006125 315.857612,79.0935354 C315.843084,79.0701842 315.826629,79.0484914 315.809718,79.0269796 C315.795377,79.0086852 315.781404,78.9903908 315.765778,78.9737548 C315.749042,78.9560091 315.730661,78.9403833 315.712273,78.9242962 C315.69361,78.9080283 315.675409,78.8916606 315.655463,78.8775063 C315.635977,78.863533 315.615014,78.8519478 315.594238,78.8400009 C315.573281,78.8278669 315.552599,78.8154587 315.530625,78.8054384 C315.508471,78.7953248 315.485307,78.7878797 315.462049,78.7798799 C315.438885,78.7719736 315.415995,78.7638863 315.392189,78.7581873 C315.369848,78.7529433 315.346958,78.7500938 315.323981,78.7467891 C315.296951,78.7429232 315.270201,78.739525 315.242809,78.7386083 C315.234442,78.7383276 315.226722,78.7361203 315.218261,78.7361203 L300.743362,78.7361203 L297.233618,72.6568537 L293.723687,66.577584 L297.233618,60.4983143 L300.96123,54.0417794 C301.16972,53.6810598 301.045987,53.2192222 300.684899,53.0107316 C300.323999,52.8026121 299.862342,52.9261589 299.654039,53.2872464 L295.926427,59.7437812 L292.198633,66.2003191 C292.194587,66.2073058 292.192654,66.2149348 292.188888,66.2220117 C292.17565,66.2466475 292.164988,66.272019 292.154687,66.2977583 C292.146138,66.3190863 292.137315,66.3400463 292.130787,66.3617389 C292.123803,66.3852742 292.119389,66.4091741 292.114613,66.4333516 C292.109924,66.4574356 292.104867,66.4812451 292.102479,66.505513 C292.100178,66.5295066 292.100639,66.5534065 292.100639,66.577584 C292.100639,66.6017615 292.100178,66.6256614 292.102479,66.649655 C292.104867,66.6739228 292.109924,66.6977324 292.114613,66.7218164 C292.119389,66.7459938 292.123804,66.7698938 292.130787,66.7934259 C292.137315,66.8151217 292.146138,66.8360817 292.154687,66.8574065 C292.164988,66.883146 292.17565,66.9085175 292.188888,66.9331532 C292.192654,66.9402334 292.194587,66.9478623 292.198633,66.9548489 L295.926427,73.4113837 L299.000627,78.7361203 L293.287957,78.7361203 L289.778213,72.6568537 C289.774073,72.6496831 289.768286,72.6440745 289.763965,72.6369973 C289.749437,72.6136492 289.732982,72.5919533 289.716072,72.5704415 C289.70173,72.5521502 289.687757,72.5338558 289.672131,72.5172167 C289.655396,72.4994741 289.637014,72.4838483 289.618626,72.4677612 C289.599964,72.4514901 289.581763,72.4351256 289.561816,72.4209714 C289.542331,72.4069981 289.521368,72.3954159 289.500591,72.3834659 C289.479634,72.3713289 289.458952,72.3589205 289.436979,72.3489004 C289.414825,72.3387867 289.39166,72.3313417 289.368403,72.323345 C289.345238,72.3154386 289.322349,72.3073482 289.298542,72.3016492 C289.276201,72.2964116 289.253311,72.2935619 289.230328,72.290251 C289.203304,72.2863913 289.176554,72.28299 289.149163,72.2820702 C289.140795,72.2817927 289.133075,72.2795886 289.124614,72.2795886 L282.9764,72.2795886 L286.050601,66.9548489 L289.778213,60.4983141 L293.505825,54.0417793 L297.233618,47.585243 L300.307631,42.2610551 L303.381651,47.585243 L306.891395,53.6645113 L303.381651,59.743781 L299.654039,66.2003189 C299.445549,66.5610353 299.569282,67.0228731 299.93037,67.2313636 C300.049134,67.2997557 300.178934,67.3324817 300.306896,67.3324817 C300.567788,67.3324817 300.821503,67.1971658 300.96123,66.9548489 L304.688842,60.4983141 L307.762856,55.1738517 L310.836869,60.4983141 L314.564668,66.9548489 L317.638869,72.2795886 L311.926199,72.2795886 L308.416455,66.2003189 C308.409371,66.1880011 308.399813,66.1782552 308.392187,66.1664892 C308.37711,66.143325 308.361571,66.1208934 308.343832,66.0993816 C308.3282,66.0801705 308.311383,66.0627959 308.294099,66.0455146 C308.277183,66.0285981 308.260179,66.0121431 308.241517,65.9967918 C308.219824,65.9789589 308.197115,65.9633331 308.173857,65.9480722 C308.162185,65.9404433 308.152439,65.9308815 308.140124,65.9238044 C308.132953,65.9196671 308.125228,65.9177374 308.11797,65.9138746 C308.093609,65.9008209 308.068511,65.8903425 308.042953,65.8800481 C308.021628,65.8714962 308.000484,65.8625798 307.978698,65.856145 C307.955072,65.8490679 307.931079,65.8445629 307.906811,65.8398739 C307.882911,65.8351881 307.859198,65.8301311 307.835111,65.8278334 C307.811117,65.8255357 307.787124,65.8259941 307.762856,65.8259037 C307.738682,65.8259941 307.714688,65.8255357 307.690695,65.8278334 C307.66652,65.8301311 307.642801,65.8351879 307.618714,65.8398739 C307.594633,65.8446564 307.570733,65.8490679 307.547195,65.8560545 C307.525228,65.8625798 307.50399,65.8715897 307.482391,65.8802319 C307.457107,65.8903425 307.432197,65.9008209 307.408023,65.9136907 C307.400665,65.9176439 307.392852,65.9195738 307.385588,65.9238044 C307.37318,65.930975 307.363347,65.9406273 307.351393,65.9484402 C307.32841,65.9634236 307.305982,65.9789589 307.28447,65.996608 C307.265627,66.0121432 307.248342,66.0287822 307.231339,66.0458825 C307.214241,66.0629798 307.197599,66.0801705 307.181974,66.0991977 C307.164234,66.1207095 307.148602,66.143325 307.133531,66.1665796 C307.125899,66.1783487 307.116341,66.1880011 307.109263,66.2003189 L303.381651,72.6568537 C303.173161,73.0175734 303.296895,73.479411 303.657982,73.6878984 C303.776746,73.7562905 303.906547,73.7890165 304.034508,73.7890165 C304.295394,73.7890165 304.549115,73.6537006 304.688843,73.4113837 L307.762856,68.0869213 L310.83687,73.4113837 C310.84018,73.4170827 310.845237,73.4210361 310.848636,73.4266447 C310.880355,73.4783979 310.916114,73.5270271 310.958951,73.569499 C310.964556,73.575198 310.971265,73.5790577 310.977058,73.5843889 C311.014476,73.6193223 311.055474,73.6498411 311.099414,73.6766841 C311.115407,73.6863364 311.131588,73.6946107 311.148224,73.7030657 C311.185823,73.7223703 311.224987,73.7379991 311.265984,73.7508689 C311.282714,73.7561065 311.298707,73.7622671 311.315811,73.7663107 C311.369036,73.7789964 311.423913,73.7869964 311.48091,73.7877321 C311.484401,73.7877321 311.487712,73.7890165 311.491204,73.7890165 C311.492121,73.7890165 311.493044,73.7886486 311.494054,73.7886486 L318.510143,73.7886486 L322.019893,79.8679183 L325.529631,85.9471881 L322.237755,91.6488281 L315.653991,91.6488281 L312.14406,85.5699261 C311.935756,85.2088387 311.474473,85.0849179 311.113018,85.2937762 C310.752118,85.5018988 310.628384,85.9637366 310.836868,86.3244561 L314.564667,92.7806198 C314.567978,92.7863251 314.573029,92.7902722 314.576433,92.7958839 C314.608146,92.8476371 314.643906,92.8962664 314.686743,92.9387351 C314.692354,92.9444342 314.699063,92.9482938 314.704856,92.9536251 C314.742268,92.9885615 314.783265,93.0190773 314.827206,93.0459202 C314.843205,93.0555726 314.85938,93.0638468 314.876022,93.0723019 C314.913621,93.0916064 314.952779,93.1072383 314.993776,93.1201081 C315.010512,93.1253457 315.026505,93.1315064 315.043602,93.135553 C315.096827,93.1482357 315.151704,93.1562357 315.208701,93.1569714 C315.212193,93.1569714 315.215504,93.1582558 315.218996,93.1582558 C315.219919,93.1582558 315.220835,93.1578879 315.221845,93.1578879 L322.237754,93.1578879 L325.747504,99.2371576 L329.475116,105.693696 C329.614837,105.936013 329.868553,106.071325 330.129438,106.071325 C330.2574,106.071325 330.387207,106.038602 330.505977,105.970207 C330.867064,105.761717 330.990798,105.299879 330.782301,104.939166 L327.054689,98.4826276 L323.544952,92.4033579 L326.40109,87.4564349 L329.475116,92.7806197 L333.202903,99.2371576 L336.930515,105.693696 L340.658127,112.150227 L344.385739,118.606765 L347.45994,123.931505 L335.163512,123.931505 L338.237713,118.606765 C338.241853,118.599594 338.243773,118.591962 338.247639,118.584705 C338.260596,118.560437 338.271171,118.535246 338.281472,118.509781 C338.290114,118.488269 338.299031,118.467038 338.305553,118.445158 C338.312537,118.421807 338.316951,118.398 338.32164,118.374007 C338.326416,118.349832 338.331479,118.325839 338.333861,118.301571 C338.336168,118.277578 338.335707,118.253678 338.335707,118.229497 C338.335707,118.205323 338.336168,118.181423 338.333861,118.157429 C338.331479,118.133161 338.326416,118.109168 338.32164,118.084994 C338.316951,118.061 338.312536,118.037187 338.305553,118.013842 C338.299031,117.991963 338.290114,117.970725 338.281472,117.949213 C338.271171,117.923754 338.260596,117.898564 338.247639,117.874296 C338.243773,117.867032 338.241853,117.859406 338.237713,117.852235 L334.510101,111.395697 C334.50596,111.388527 334.500174,111.382921 334.495847,111.375844 C334.481331,111.352586 334.464957,111.330981 334.448047,111.309469 C334.433618,111.291087 334.419638,111.272699 334.403925,111.25597 C334.38729,111.238318 334.368995,111.222786 334.350701,111.206792 C334.331945,111.190518 334.31365,111.173969 334.29361,111.159722 C334.274218,111.145842 334.253442,111.134444 334.232853,111.122491 C334.211703,111.110269 334.190927,111.097767 334.168779,111.087747 C334.146806,111.077727 334.123735,111.070282 334.100664,111.062282 C334.077307,111.054282 334.054323,111.046195 334.03033,111.040496 C334.008095,111.035258 333.985286,111.032315 333.962402,111.029098 C333.935279,111.025238 333.908442,111.021834 333.881044,111.020917 C333.872676,111.020636 333.864957,111.018435 333.856502,111.018435 L326.836827,111.018435 L323.327077,104.939166 L319.599471,98.4826278 C319.595331,98.4753637 319.589538,98.4697581 319.58513,98.4627683 C319.570695,98.4395168 319.554427,98.4180922 319.537698,98.3966739 C319.523169,98.378105 319.508922,98.3594491 319.493021,98.3425326 C319.476747,98.3254354 319.458914,98.3101713 319.441081,98.2945456 C319.42187,98.2777226 319.403021,98.2608063 319.382338,98.2461906 C319.363769,98.2328658 319.343729,98.2218355 319.323782,98.2102503 C319.301903,98.1975614 319.280391,98.1846918 319.257501,98.1743037 C319.236176,98.1645641 319.213929,98.1574871 319.191687,98.1497616 C319.167507,98.1414 319.1437,98.1330322 319.118877,98.1272396 C319.097366,98.1220955 319.075305,98.1193332 319.053244,98.1162093 C319.025391,98.1121626 318.997812,98.1086707 318.969591,98.1077542 C318.961498,98.1074736 318.953966,98.1053599 318.945872,98.1053599 L311.926197,98.1053599 L308.416454,92.0260902 C308.412313,92.0189196 308.406521,92.0132205 308.4022,92.0062369 C308.387678,91.9829792 308.37141,91.9614674 308.354493,91.940049 C308.340152,91.9215738 308.325998,91.9030923 308.310185,91.8862693 C308.293637,91.8687168 308.275436,91.853272 308.257235,91.8373656 C308.238479,91.8210041 308.220097,91.8043683 308.199963,91.790027 C308.180565,91.7762345 308.159795,91.7648363 308.139107,91.7527959 C308.117969,91.7406619 308.09728,91.7281601 308.07522,91.7181399 C308.053066,91.7080263 308.029901,91.7005813 308.006737,91.6925814 C307.983479,91.6846751 307.960589,91.6765878 307.936783,91.6708888 C307.914442,91.6656512 307.891552,91.662708 307.868481,91.6594906 C307.841545,91.6556309 307.814702,91.6522265 307.787397,91.6513098 C307.779036,91.6510355 307.77131,91.6488282 307.762855,91.6488282 L300.743361,91.6488282 L297.887029,86.7017182 L304.035243,86.7017182 C304.452037,86.7017182 304.78996,86.3641692 304.78996,85.9471882 C304.78996,85.5302135 304.452037,85.1926583 304.035243,85.1926583 L296.580019,85.1926583 C296.5666,85.1926583 296.554192,85.1958757 296.540954,85.1966114 C296.512178,85.198083 296.483683,85.2003776 296.455,85.2052536 C296.431743,85.2092068 296.409408,85.2147188 296.386973,85.2206985 C296.362892,85.2271334 296.339173,85.2339361 296.315641,85.2428526 C296.289808,85.2525049 296.265447,85.2640838 296.241092,85.2764049 C296.228403,85.2828398 296.215072,85.2866058 296.20257,85.2937764 C296.195312,85.298004 296.1897,85.303703 296.182716,85.3081176 C296.159552,85.3225523 296.13804,85.3388204 296.116622,85.3555497 C296.098147,85.3699844 296.079759,85.3840514 296.062936,85.3998578 C296.045284,85.4165934 296.029658,85.4348817 296.013665,85.4531761 C295.99739,85.4718384 295.981029,85.4900393 295.966781,85.5099861 C295.952808,85.5294776 295.941316,85.5504346 295.929182,85.5712107 C295.917048,85.5922611 295.90464,85.6128565 295.89462,85.6348234 C295.8846,85.6569774 295.877061,85.6801417 295.869155,85.7033121 C295.861155,85.7264763 295.853068,85.7494535 295.847368,85.7732662 C295.842131,85.795601 295.839188,85.818491 295.83597,85.8414744 C295.832111,85.8684983 295.828706,85.8953414 295.827789,85.9227393 C295.827515,85.9310135 295.825308,85.9388264 295.825308,85.9471879 C295.825308,85.9615291 295.828706,85.9747667 295.829536,85.9889272 C295.831007,86.0164125 295.833214,86.0436172 295.83781,86.0710152 C295.84185,86.0951896 295.847556,86.1184473 295.853803,86.141705 C295.860057,86.1650562 295.866673,86.1881269 295.875315,86.2111104 C295.885061,86.2371241 295.896827,86.2617599 295.909329,86.2863957 C295.915577,86.2988976 295.919256,86.3121352 295.926426,86.3244561 L299.654038,92.7806198 C299.657349,92.7863251 299.6624,92.7902722 299.665804,92.7958839 C299.697517,92.8476371 299.733277,92.8962664 299.776113,92.9387351 C299.781725,92.9444342 299.788434,92.9482938 299.794227,92.9536251 C299.831639,92.9885615 299.872636,93.0190773 299.916576,93.0459202 C299.932576,93.0555726 299.948751,93.0638468 299.965393,93.0723019 C300.002992,93.0916064 300.04215,93.1072383 300.083147,93.1201081 C300.099882,93.1253457 300.115876,93.1315064 300.132973,93.135553 C300.186198,93.1482357 300.241081,93.1562357 300.298072,93.1569714 C300.301564,93.1569714 300.304875,93.1582558 300.308367,93.1582558 C300.30929,93.1582558 300.310206,93.1578879 300.311216,93.1578879 L307.327125,93.1578879 L310.836869,99.2371576 C310.84018,99.2428566 310.845236,99.2468099 310.848635,99.2524155 C310.880354,99.3041749 310.916113,99.3528041 310.95895,99.3952729 C310.964555,99.4009719 310.971265,99.4048316 310.977057,99.4101628 C311.014476,99.445093 311.055473,99.475615 311.099413,99.502458 C311.115407,99.5121103 311.131587,99.5203846 311.148223,99.5288396 C311.185822,99.5481442 311.224986,99.5637699 311.265984,99.5766397 C311.282713,99.5818836 311.298706,99.5880379 311.31581,99.5920845 C311.369035,99.6047734 311.423912,99.6127672 311.480909,99.6135029 C311.484401,99.6135029 311.487712,99.6147935 311.491203,99.6147935 C311.49212,99.6147935 311.493043,99.6144256 311.494053,99.6144256 L318.510142,99.6144256 L322.019892,105.693695 L325.747504,112.150227 C325.750809,112.155926 325.75586,112.159879 325.759264,112.165491 C325.790977,112.217244 325.826743,112.265874 325.869579,112.308342 C325.875191,112.314041 325.8819,112.317901 325.887687,112.323232 C325.925099,112.358169 325.966102,112.388684 326.010036,112.415527 C326.026036,112.42518 326.042211,112.433454 326.058859,112.441909 C326.096458,112.461214 326.135616,112.476846 326.176607,112.489715 C326.193342,112.494953 326.209342,112.501114 326.226439,112.505154 C326.279664,112.517843 326.334547,112.525843 326.391538,112.526572 C326.39503,112.526572 326.398335,112.527863 326.401827,112.527863 C326.40275,112.527863 326.403672,112.527495 326.404682,112.527495 L333.420778,112.527495 L336.712654,118.229497 L333.202904,124.308767 L329.475117,130.764943 C329.340346,130.998431 329.340346,131.285979 329.475117,131.519466 L333.202904,137.976004 L336.930516,144.432542 C337.070249,144.674859 337.323964,144.810166 337.58485,144.810166 C337.712811,144.810166 337.842606,144.777443 337.961376,144.709054 C338.322464,144.50057 338.446197,144.038732 338.237713,143.678006 L334.510101,137.221468 L331.000164,131.142205 L334.292239,125.440565 L348.331214,125.440565 L351.841151,131.519467 L355.568763,137.976005 L358.642964,143.300744 L352.930474,143.300744 L349.42055,137.221468 C349.416409,137.214298 349.410611,137.208599 349.406296,137.201615 C349.391768,137.178357 349.375406,137.156845 349.358583,137.135333 C349.344155,137.116865 349.330088,137.098383 349.314188,137.08156 C349.297826,137.064276 349.279893,137.048925 349.261973,137.033211 C349.242855,137.016476 349.224012,136.999566 349.203511,136.985037 C349.185029,136.971893 349.165363,136.961044 349.145684,136.949558 C349.123349,136.936589 349.101376,136.923445 349.078031,136.91287 C349.057529,136.903591 349.036105,136.896695 349.01478,136.88925 C348.989689,136.880421 348.96486,136.871779 348.939033,136.865718 C348.918631,136.860942 348.897668,136.85836 348.87653,136.855243 C348.847661,136.851015 348.818978,136.847424 348.78966,136.846501 C348.781928,136.846227 348.774758,136.844206 348.766951,136.844206 L341.747451,136.844206 L338.891125,131.896728 L345.039339,131.896728 C345.456132,131.896728 345.794049,131.559185 345.794049,131.142204 C345.794049,130.725224 345.456132,130.387668 345.039339,130.387668 L337.584114,130.387668 C337.56986,130.387668 337.556542,130.391073 337.542475,130.391896 C337.51489,130.393367 337.487592,130.395575 337.460106,130.400176 C337.4363,130.40413 337.413504,130.409729 337.39052,130.415889 C337.366526,130.422237 337.342895,130.429033 337.319363,130.43795 C337.294546,130.447241 337.270927,130.458452 337.247395,130.470224 C337.234064,130.476933 337.219997,130.480886 337.206852,130.488419 C337.199133,130.492921 337.19306,130.499081 337.185528,130.50377 C337.163367,130.51765 337.142865,130.533288 337.122364,130.549275 C337.103159,130.564165 337.084042,130.578781 337.06657,130.595242 C337.049373,130.611604 337.034122,130.629437 337.018396,130.647357 C337.001847,130.6663 336.985212,130.684781 336.970783,130.705096 C336.956903,130.724488 336.945405,130.745264 336.933458,130.76604 C336.921325,130.787091 336.908829,130.807779 336.898803,130.82984 C336.888689,130.851901 336.881157,130.875158 336.87315,130.898416 C336.865256,130.921574 336.857163,130.944383 336.851464,130.968277 C336.846226,130.990524 336.843283,131.013408 336.840066,131.036491 C336.8362,131.063515 336.832795,131.090352 336.831885,131.11775 C336.831611,131.126018 336.829403,131.133837 336.829403,131.142204 C336.829403,131.156546 336.832795,131.169877 336.833631,131.183931 C336.835103,131.211417 336.83731,131.238628 336.841899,131.266026 C336.845952,131.290206 336.851651,131.313464 336.857899,131.336722 C336.864147,131.360067 336.870768,131.383137 336.879411,131.406121 C336.88915,131.432134 336.900923,131.456776 336.913418,131.481406 C336.919666,131.493914 336.923345,131.507146 336.930515,131.519466 L340.658128,137.976004 C340.661445,137.981703 340.666495,137.985657 340.6699,137.991268 C340.701613,138.043022 340.737366,138.091645 340.780203,138.13412 C340.785814,138.139819 340.792524,138.143672 340.798322,138.14901 C340.835734,138.18394 340.876725,138.214456 340.920672,138.241305 C340.936672,138.250957 340.952846,138.259225 340.969482,138.26768 C341.007081,138.286985 341.046239,138.302623 341.087242,138.315493 C341.103978,138.32073 341.119965,138.326891 341.137063,138.330931 C341.190287,138.343614 341.245171,138.35162 341.302161,138.352343 C341.305653,138.352343 341.30897,138.35364 341.312462,138.35364 C341.313385,138.35364 341.314295,138.353266 341.315306,138.353266 L348.331214,138.353266 L351.623277,144.055268 L348.113352,150.134544 C348.106269,150.146865 348.102602,150.160009 348.096255,150.172505 C348.083747,150.197147 348.072074,150.221876 348.062247,150.24789 C348.053605,150.270873 348.046983,150.293857 348.040735,150.317202 C348.034475,150.340547 348.028776,150.363804 348.024736,150.387985 C348.020134,150.415383 348.017939,150.442594 348.016468,150.470079 C348.015632,150.484234 348.01224,150.497465 348.01224,150.511806 C348.01224,150.520174 348.014435,150.527993 348.014722,150.536261 C348.015632,150.563659 348.019036,150.590496 348.022902,150.61752 C348.02612,150.640503 348.02905,150.663399 348.034301,150.685734 C348.04,150.70964 348.048081,150.732524 348.056087,150.755782 C348.06408,150.778952 348.071438,150.802023 348.081552,150.824083 C348.091566,150.846144 348.104074,150.866733 348.116208,150.887783 C348.128242,150.908659 348.139827,150.929523 348.153707,150.949014 C348.167961,150.968955 348.184323,150.987162 348.200597,151.005818 C348.216584,151.024112 348.23221,151.042407 348.249868,151.059142 C348.266691,151.074955 348.285073,151.08901 348.303554,151.103451 C348.324966,151.120174 348.346391,151.136448 348.369549,151.150876 C348.376632,151.155291 348.382231,151.16099 348.389502,151.165218 C348.398319,151.170368 348.408071,151.17184 348.416987,151.176616 C348.457068,151.197766 348.498982,151.214951 348.542928,151.228743 C348.559564,151.233981 348.575738,151.240054 348.592661,151.244095 C348.643766,151.256229 348.696529,151.263586 348.751138,151.264783 C348.756189,151.264871 348.761252,151.266704 348.766215,151.266704 C348.767138,151.266704 348.768048,151.266342 348.769058,151.266342 L356.22235,151.266342 C356.639143,151.266342 356.977073,150.928787 356.977073,150.511806 C356.977073,150.094825 356.639143,149.757282 356.22235,149.757282 L350.073961,149.757282 L352.930474,144.809804 L359.514237,144.809804 L363.023987,150.88908 L366.751587,157.345606 L370.479386,163.802144 L373.553587,169.126522 L367.840923,169.126522 L364.331173,163.04762 L360.603561,156.591082 C360.59942,156.583911 360.593634,156.5783 360.589319,156.571229 C360.574791,156.547871 360.55833,156.526185 360.541419,156.504673 C360.527078,156.486379 360.513111,156.468084 360.497485,156.451448 C360.48075,156.433703 360.462368,156.418077 360.443974,156.40199 C360.425318,156.385715 360.40711,156.369354 360.38717,156.3552 C360.367678,156.34122 360.346715,156.329635 360.325939,156.317688 C360.304988,156.305554 360.2843,156.293146 360.262326,156.283119 C360.240179,156.273018 360.217008,156.265573 360.19375,156.257567 C360.170592,156.249661 360.147696,156.24158 360.12389,156.235881 C360.101555,156.23063 360.078659,156.227787 360.055688,156.224482 C360.028652,156.220617 360.001902,156.217212 359.974516,156.216289 C359.966149,156.216015 359.958429,156.213808 359.949962,156.213808 L345.039338,156.213808 C345.030883,156.213808 345.023164,156.216015 345.014796,156.216289 C344.987398,156.217212 344.960649,156.220617 344.933625,156.224482 C344.910642,156.227787 344.887746,156.23063 344.865411,156.235881 C344.841604,156.24158 344.818708,156.249661 344.79555,156.257567 C344.772292,156.265573 344.749122,156.273018 344.726974,156.283119 C344.705001,156.293146 344.684312,156.305554 344.663361,156.317688 C344.642585,156.329635 344.621622,156.34122 344.60213,156.3552 C344.58219,156.369354 344.563983,156.385715 344.545327,156.40199 C344.526945,156.418077 344.508551,156.433703 344.491828,156.451448 C344.476202,156.468084 344.462222,156.486378 344.447881,156.504673 C344.430971,156.526185 344.41451,156.547871 344.399994,156.571229 C344.395666,156.5783 344.38988,156.583911 344.38574,156.591082 L340.87599,162.670346 L333.856502,162.670346 C333.439708,162.670346 333.101791,163.007901 333.101791,163.424882 C333.101791,163.841863 333.439708,164.179406 333.856502,164.179406 L341.308135,164.179406 C341.309158,164.179406 341.310068,164.17978 341.310991,164.17978 C341.314482,164.17978 341.317787,164.178495 341.321291,164.178495 C341.378282,164.17776 341.433166,164.169753 341.48639,164.157071 C341.503488,164.15303 341.519475,164.14687 341.536211,164.141632 C341.577214,164.128762 341.616372,164.113137 341.653971,164.093832 C341.670607,164.085364 341.686781,164.077096 341.702781,164.067444 C341.746728,164.040607 341.787719,164.010079 341.825131,163.975149 C341.830929,163.969824 341.837639,163.965958 341.843238,163.960259 C341.886087,163.917784 341.92184,163.869161 341.953553,163.817408 C341.956958,163.811796 341.962008,163.807843 341.965325,163.802144 L345.475063,157.72288 L352.059013,157.72288 L355.568763,163.802144 C355.708484,164.044461 355.9622,164.17978 356.223086,164.17978 C356.351047,164.17978 356.480854,164.147057 356.599624,164.078655 C356.960711,163.870171 357.084445,163.408333 356.875949,163.04762 L353.801748,157.722881 L359.514237,157.722881 L363.023987,163.802144 L366.098175,169.126522 L352.930474,169.126522 L349.420549,163.04762 C349.21224,162.686533 348.750951,162.562238 348.389502,162.771471 C348.028601,162.979593 347.904868,163.441431 348.113352,163.802144 L351.187639,169.126522 L330.564439,169.126522 L327.054689,163.04762 C326.846392,162.686533 326.385103,162.562238 326.023642,162.771471 C325.662741,162.979593 325.539007,163.441431 325.747504,163.802144 L328.821704,169.126522 L309.069866,169.126522 L311.926198,164.179406 L318.945873,164.179406 C319.362666,164.179406 319.700589,163.841863 319.700589,163.424882 C319.700589,163.007902 319.362666,162.670346 318.945873,162.670346 L311.490467,162.670346 C311.483116,162.670346 311.476313,162.672279 311.468956,162.672554 C311.438346,162.673389 311.408379,162.677055 311.378225,162.681657 C311.358459,162.6846 311.338787,162.687082 311.319482,162.691497 C311.292365,162.697832 311.266351,162.706848 311.240057,162.716126 C311.219836,162.723297 311.199615,162.729732 311.18031,162.738561 C311.155855,162.749585 311.132965,162.76319 311.109801,162.776796 C311.091045,162.787832 311.072109,162.798133 311.054463,162.810716 C311.033319,162.825706 311.01392,162.843077 310.994248,162.860362 C310.976877,162.875626 310.959499,162.890516 310.943505,162.907338 C310.927418,162.924436 310.913077,162.943192 310.898368,162.962035 C310.881732,162.983272 310.865551,163.004684 310.85121,163.027668 C310.846801,163.034751 310.841102,163.04035 310.836869,163.047621 L307.327125,169.126523 L294.159324,169.126523 L297.015749,164.179406 L304.031658,164.179406 C304.032668,164.179406 304.033591,164.179781 304.034507,164.179781 C304.037999,164.179781 304.04131,164.178496 304.044802,164.178496 C304.101799,164.17776 304.156676,164.169754 304.209907,164.157072 C304.227004,164.153031 304.242998,164.146871 304.259727,164.141633 C304.300724,164.128763 304.339888,164.113137 304.377487,164.093833 C304.394123,164.085365 304.410304,164.077097 304.426298,164.067445 C304.470238,164.040608 304.511241,164.01008 304.548653,163.97515 C304.554446,163.969825 304.561155,163.965959 304.566761,163.96026 C304.609597,163.917785 304.645357,163.869162 304.677076,163.817409 C304.680474,163.811797 304.685531,163.807844 304.688842,163.802145 L308.198586,157.722881 L315.214675,157.722881 C315.215692,157.722881 315.216608,157.723243 315.217525,157.723243 C315.221023,157.723243 315.224327,157.721958 315.227825,157.721958 C315.284816,157.721223 315.3397,157.713229 315.392924,157.700534 C315.410022,157.696493 315.426015,157.690333 315.442745,157.685095 C315.483748,157.672225 315.522906,157.6566 315.560505,157.637295 C315.577141,157.62884 315.593321,157.62056 315.609315,157.610907 C315.653255,157.58407 315.694259,157.553542 315.731671,157.518612 C315.737463,157.513287 315.744173,157.509421 315.749778,157.503722 C315.792621,157.46126 315.828374,157.412624 315.860093,157.360871 C315.863492,157.355259 315.868548,157.351306 315.871859,157.345607 L319.381603,151.266343 L325.965367,151.266343 L328.821705,156.213809 L322.673485,156.213809 C322.256691,156.213809 321.918768,156.551364 321.918768,156.968345 C321.918768,157.385326 322.256691,157.722881 322.673485,157.722881 L330.126596,157.722881 C330.127606,157.722881 330.128529,157.723243 330.129439,157.723243 C330.130362,157.723243 330.131285,157.722881 330.132295,157.722881 L337.584114,157.722881 C338.000908,157.722881 338.338825,157.385326 338.338825,156.968345 C338.338825,156.551364 338.000908,156.213809 337.584114,156.213809 L330.564527,156.213809 L327.272552,150.511807 L330.128703,145.564616 L333.202903,150.889081 C333.206221,150.894781 333.211271,150.898734 333.214676,150.904333 C333.246388,150.956086 333.282142,151.004722 333.324991,151.047184 C333.33059,151.052883 333.337299,151.056749 333.343098,151.062087 C333.38051,151.097017 333.421514,151.127533 333.465448,151.154369 C333.481448,151.164022 333.497622,151.172302 333.514258,151.180757 C333.551857,151.200062 333.591015,151.215687 333.632018,151.228557 C333.648754,151.233795 333.664741,151.239955 333.681838,151.244008 C333.735063,151.256691 333.789946,151.264685 333.846937,151.26542 C333.850442,151.26542 333.853746,151.266705 333.857238,151.266705 C333.858161,151.266705 333.859071,151.266343 333.860094,151.266343 L341.308135,151.266343 C341.309158,151.266343 341.310068,151.266705 341.310991,151.266705 C341.314483,151.266705 341.317787,151.26542 341.321292,151.26542 C341.378282,151.264685 341.433166,151.256691 341.486391,151.244008 C341.503488,151.239955 341.519475,151.233795 341.536211,151.228557 C341.577214,151.215688 341.616372,151.200062 341.653971,151.180757 C341.670607,151.172302 341.686781,151.164022 341.702781,151.154369 C341.746728,151.127532 341.787719,151.097017 341.825131,151.062087 C341.83093,151.056749 341.837639,151.052883 341.843238,151.047184 C341.886087,151.004722 341.921841,150.956086 341.953553,150.904333 C341.956958,150.898734 341.962008,150.894781 341.965326,150.889081 L345.692938,144.432544 C345.901422,144.071818 345.777688,143.60998 345.416601,143.401496 C345.0557,143.193747 344.59405,143.31692 344.38574,143.678007 L340.87599,149.757284 L334.292239,149.757284 L330.782302,143.678007 C330.775318,143.665786 330.765753,143.656134 330.758121,143.644461 C330.742957,143.621104 330.727244,143.598395 330.709311,143.576609 C330.69406,143.55804 330.677698,143.541042 330.660962,143.524307 C330.643491,143.506748 330.625845,143.489738 330.606354,143.473838 C330.585677,143.456828 330.563978,143.441851 330.541731,143.427235 C330.529322,143.419142 330.519022,143.409028 330.505977,143.401496 C330.498433,143.397081 330.490164,143.395061 330.482532,143.39102 C330.459187,143.3786 330.435194,143.368586 330.410739,143.358746 C330.388491,143.349743 330.366618,143.340552 330.343996,143.333842 C330.320925,143.326946 330.297481,143.322619 330.273861,143.31803 C330.249494,143.313241 330.225326,143.308103 330.200783,143.305709 C330.176877,143.303414 330.152884,143.303863 330.128703,143.303863 C330.104622,143.303863 330.080728,143.303414 330.056822,143.305709 C330.03218,143.308103 330.007912,143.313241 329.98347,143.31803 C329.959925,143.322619 329.93668,143.326946 329.913784,143.333743 C329.890713,143.340552 329.868378,143.34993 329.845757,143.35912 C329.82195,143.368773 329.798418,143.378512 329.775622,143.390559 C329.767616,143.394786 329.75916,143.396994 329.751254,143.401496 C329.737836,143.409302 329.726986,143.41969 329.714216,143.428158 C329.692792,143.442312 329.671741,143.456828 329.651614,143.473289 C329.631661,143.489563 329.613553,143.507122 329.595533,143.52513 C329.579259,143.541504 329.563359,143.55804 329.548469,143.576159 C329.530262,143.59822 329.514274,143.621291 329.498823,143.645097 C329.491379,143.656495 329.482,143.66606 329.475117,143.678007 L325.965367,149.757283 L318.945873,149.757283 C318.938154,149.757283 318.931076,149.759304 318.923444,149.759578 C318.894026,149.760401 318.865256,149.76408 318.8363,149.768307 C318.815249,149.771438 318.794286,149.774006 318.77379,149.778795 C318.747958,149.784856 318.723135,149.793498 318.698044,149.802327 C318.676713,149.809673 318.655388,149.816569 318.63498,149.82586 C318.611354,149.836522 318.5892,149.849753 318.566678,149.86281 C318.54728,149.874208 318.527795,149.884871 318.509594,149.89784 C318.488724,149.91263 318.469694,149.929728 318.450302,149.946837 C318.43265,149.962276 318.41491,149.977353 318.398823,149.994363 C318.382823,150.01136 318.368576,150.030029 318.354054,150.048685 C318.337231,150.070109 318.320957,150.091522 318.306622,150.114692 C318.302207,150.121676 318.296414,150.127287 318.29228,150.134545 L314.78253,156.213809 L308.198586,156.213809 L304.688842,150.134545 C304.48072,149.773096 304.018882,149.649911 303.657982,149.858034 C303.296894,150.066518 303.173161,150.528356 303.381651,150.889081 L306.891395,156.968345 L303.59942,162.670347 L297.01575,162.670347 L293.505825,156.591083 L289.996075,150.511807 L293.505825,144.432544 L297.01575,138.353267 L311.490468,138.353267 C311.907262,138.353267 312.245185,138.015712 312.245185,137.598744 C312.245185,137.181763 311.907262,136.844208 311.490468,136.844208 L282.9764,136.844208 L286.0506,131.519468 L289.778212,125.063304 L293.505824,118.606766 L297.233617,112.150228 L300.307631,106.825769 L303.38165,112.150228 L307.109262,118.606766 L310.836868,125.063304 L314.564667,131.519468 L318.074411,137.598744 L314.782442,143.300746 L300.30763,143.300746 C300.299175,143.300746 300.291456,143.302953 300.283088,143.303227 C300.255696,143.30415 300.228941,143.307542 300.201917,143.311408 C300.178933,143.314713 300.156044,143.317568 300.133709,143.322806 C300.109896,143.328505 300.087012,143.336599 300.063842,143.344505 C300.040584,143.352499 300.01742,143.359944 299.995266,143.370057 C299.973299,143.380071 299.95261,143.392492 299.931653,143.404626 C299.910877,143.416573 299.88992,143.428158 299.870429,143.442125 C299.850482,143.456279 299.832281,143.472641 299.813619,143.488915 C299.795237,143.505002 299.776849,143.520628 299.76012,143.538374 C299.744494,143.555009 299.73052,143.573304 299.716179,143.591598 C299.699263,143.61311 299.682808,143.634809 299.668286,143.658154 C299.663965,143.665238 299.658172,143.670837 299.654038,143.678008 L295.926426,150.134545 C295.791662,150.368033 295.791662,150.655581 295.926426,150.889082 L299.654038,157.345607 C299.793765,157.587924 300.047481,157.723243 300.308366,157.723243 C300.436328,157.723243 300.566128,157.69052 300.684899,157.622131 C301.045986,157.413635 301.16972,156.951797 300.961229,156.591083 L297.451479,150.511807 L300.743454,144.809806 L313.911256,144.809806 L310.836868,150.134545 C310.628384,150.495259 310.752118,150.957096 311.113018,151.165219 C311.231969,151.233982 311.36177,151.266705 311.489731,151.266705 C311.750617,151.266705 312.004332,151.131399 312.14406,150.889081 L315.653991,144.809805 L322.669899,144.809805 C322.670909,144.809805 322.671832,144.810167 322.672749,144.810167 C322.67624,144.810167 322.679551,144.808883 322.683043,144.808883 C322.74004,144.808147 322.794917,144.800153 322.848142,144.787471 C322.865246,144.783418 322.881239,144.77727 322.897969,144.772019 C322.938966,144.75915 322.97813,144.743524 323.015729,144.724219 C323.032365,144.715764 323.048545,144.707496 323.064539,144.697844 C323.108479,144.670995 323.149477,144.640479 323.186895,144.605549 C323.192681,144.600211 323.19939,144.596358 323.205002,144.590659 C323.247839,144.548184 323.283605,144.499548 323.315317,144.447795 C323.318709,144.442196 323.323773,144.438243 323.327077,144.432544 L327.054689,137.976006 C327.18946,137.742518 327.18946,137.45497 327.054689,137.22147 L323.544952,131.142206 L327.054689,125.063304 L330.782301,118.606766 C330.789472,118.594445 330.793151,118.581208 330.799399,118.568706 C330.811907,118.54407 330.823667,118.519434 330.833419,118.493421 C330.842061,118.470437 330.84867,118.447366 330.85493,118.424015 C330.861178,118.400757 330.866877,118.3775 330.870918,118.353325 C330.875519,118.325934 330.877727,118.298723 330.879198,118.271237 C330.880021,118.25717 330.883426,118.243839 330.883426,118.229498 C330.883426,118.221137 330.881219,118.213324 330.880944,118.205049 C330.880022,118.177651 330.876617,118.150808 330.872764,118.123785 C330.869546,118.100714 330.866603,118.077824 330.861365,118.055576 C330.855666,118.031676 330.847573,118.00888 330.839667,117.98571 C330.831673,117.962452 330.824128,117.939194 330.814014,117.917134 C330.804,117.895073 330.791492,117.874391 330.779358,117.85334 C330.767411,117.832564 330.755926,117.811788 330.742034,117.79239 C330.727605,117.772075 330.710969,117.7536 330.694421,117.734663 C330.678708,117.716736 330.663444,117.698903 330.646247,117.682536 C330.628788,117.666087 330.60967,117.651465 330.590453,117.636575 C330.569951,117.620582 330.54945,117.604956 330.527302,117.59107 C330.519757,117.586381 330.513696,117.580226 330.505977,117.575718 C330.492733,117.568092 330.478492,117.564046 330.464973,117.557243 C330.441803,117.545658 330.418732,117.534721 330.394377,117.52553 C330.369922,117.516333 330.345467,117.509169 330.320563,117.50264 C330.29859,117.496848 330.276804,117.491423 330.254095,117.487657 C330.225412,117.482781 330.196917,117.480393 330.168047,117.478921 C330.154816,117.478279 330.142221,117.474968 330.128703,117.474968 L322.673484,117.474968 C322.665578,117.474968 322.658227,117.476994 322.65032,117.477269 C322.621731,117.478185 322.593691,117.481771 322.565563,117.485817 C322.54359,117.489035 322.521804,117.491791 322.500479,117.496754 C322.475843,117.50264 322.452037,117.511002 322.428044,117.519276 C322.405609,117.527002 322.383087,117.53426 322.361668,117.544005 C322.339146,117.554213 322.318096,117.566895 322.296584,117.579304 C322.276182,117.591163 322.255587,117.602468 322.236469,117.616167 C322.216336,117.630508 322.198041,117.646963 322.179292,117.663418 C322.160997,117.679324 322.142703,117.694857 322.126061,117.712509 C322.110341,117.729238 322.096374,117.74762 322.082033,117.765914 C322.065116,117.78752 322.048661,117.809031 322.034139,117.832377 C322.029818,117.839366 322.024026,117.845065 322.019892,117.852236 L318.29228,124.308768 C318.083789,124.669487 318.207523,125.131325 318.56861,125.339816 C318.687374,125.408211 318.817175,125.440934 318.945136,125.440934 C319.206022,125.440934 319.459744,125.305621 319.599471,125.063304 L323.109215,118.984034 L328.821704,118.984034 L325.747504,124.308768 L322.019892,130.764944 C321.885128,130.998432 321.885128,131.28598 322.019892,131.519468 L325.529629,137.598744 L322.23766,143.300746 L316.52527,143.300746 L319.599471,137.976006 C319.734235,137.742518 319.734235,137.45497 319.599471,137.22147 L315.871859,130.764944 L312.361928,124.686036 L315.871859,118.606766 L319.599471,112.150228 C319.603605,112.143058 319.605538,112.135432 319.609398,112.128168 C319.622361,112.1039 319.63293,112.078709 319.643224,112.05325 C319.651866,112.031739 319.660783,112.010501 319.667311,111.988621 C319.674295,111.965276 319.678709,111.941464 319.683398,111.91747 C319.688181,111.893296 319.693231,111.869302 319.695626,111.845034 C319.69792,111.821041 319.697465,111.797141 319.697465,111.772967 C319.697465,111.748786 319.69792,111.724886 319.695626,111.700892 C319.693231,111.676625 319.688181,111.652631 319.683398,111.628457 C319.678709,111.604463 319.674295,111.580657 319.667311,111.557306 C319.660783,111.535426 319.651866,111.514195 319.643224,111.492683 C319.63293,111.467218 319.622361,111.442033 319.609398,111.417759 C319.605538,111.410501 319.603605,111.402869 319.599471,111.395699 L315.871859,104.939167 C315.663555,104.578079 315.201898,104.454894 314.840998,104.662649 C314.479911,104.871139 314.356177,105.332977 314.564667,105.693697 L318.074411,111.772967 L315.21826,116.720164 L312.14406,111.395698 C311.935756,111.034611 311.474473,110.911432 311.113018,111.119187 C310.752118,111.327671 310.628384,111.789509 310.836868,112.150228 L314.346799,118.229498 L311.490467,123.176695 L308.416454,117.852236 L304.906704,111.772966 L308.416454,105.693697 C308.551218,105.460203 308.551218,105.172655 308.416454,104.939167 L304.688842,98.4826288 C304.480719,98.1211734 304.018881,97.9983625 303.657981,98.2061109 C303.296893,98.4146013 303.17316,98.8764391 303.38165,99.2371587 L306.891394,105.316428 L304.035243,110.263626 L300.961229,104.939167 C300.954152,104.926939 300.944681,104.917193 300.936962,104.905521 C300.921885,104.88217 300.906259,104.859554 300.888426,104.837955 C300.872981,104.819199 300.856619,104.802102 300.839703,104.785185 C300.822238,104.767814 300.804773,104.750897 300.785468,104.735084 C300.764692,104.717987 300.742906,104.703004 300.720658,104.688388 C300.70825,104.680301 300.697862,104.670187 300.684899,104.662649 C300.677267,104.658234 300.669086,104.656214 300.661367,104.65208 C300.638202,104.639759 300.614209,104.629832 300.589847,104.619993 C300.5676,104.610989 300.545539,104.601705 300.522743,104.594902 C300.499759,104.588099 300.476502,104.583778 300.45297,104.579183 C300.428421,104.5744 300.404153,104.56925 300.379518,104.566862 C300.355618,104.564561 300.331718,104.565022 300.307631,104.565022 C300.28355,104.565022 300.25965,104.564561 300.235744,104.566862 C300.211108,104.56925 300.186746,104.5744 300.162204,104.579183 C300.138853,104.583778 300.115508,104.588099 300.092618,104.594902 C300.069728,104.601705 300.047574,104.610989 300.025146,104.620086 C300.000965,104.629832 299.977252,104.639759 299.954082,104.651986 C299.946363,104.65612 299.938088,104.658234 299.930369,104.662649 C299.917225,104.670187 299.906743,104.680482 299.894241,104.688662 C299.872181,104.703097 299.850669,104.717987 299.830167,104.73481 C299.810588,104.750897 299.792755,104.767994 299.775197,104.785647 C299.758555,104.802376 299.742287,104.819199 299.727116,104.837674 C299.70919,104.859467 299.693383,104.882263 299.678119,104.905701 C299.67058,104.917287 299.661022,104.927026 299.654038,104.939166 L295.926426,111.395698 L292.416495,117.474968 L263.03115,117.474968 C263.023244,117.474968 263.015892,117.477082 263.007986,117.477356 C262.979304,117.478279 262.951267,117.48177 262.922955,117.485817 C262.901166,117.489035 262.879473,117.491697 262.858239,117.496754 C262.833326,117.50264 262.809425,117.511002 262.785342,117.519369 C262.763,117.527089 262.740756,117.534259 262.719428,117.543912 C262.696816,117.554212 262.675581,117.566988 262.653885,117.57949 C262.633661,117.591256 262.613253,117.602561 262.594226,117.616073 C262.574002,117.630414 262.555617,117.647056 262.536771,117.663511 C262.51857,117.679411 262.500369,117.69495 262.483823,117.712508 C262.468011,117.729238 262.454037,117.74762 262.439696,117.765914 C262.422783,117.787519 262.406328,117.809031 262.391803,117.832376 C262.387485,117.839366 262.381692,117.845065 262.377555,117.852236 L258.649943,124.308767 C258.645805,124.315938 258.643876,124.323664 258.640016,124.330922 C258.626962,124.355283 258.61639,124.38038 258.606186,124.405845 C258.597547,124.427357 258.588628,124.448495 258.582102,124.470287 C258.575116,124.493819 258.570704,124.517626 258.565922,124.541713 C258.561236,124.565794 258.556179,124.589694 258.553788,124.613968 C258.55149,124.637955 258.551952,124.661861 258.551952,124.686036 C258.551952,124.71021 258.55149,124.73411 258.553788,124.758104 C258.556179,124.782371 258.561236,124.806365 258.566015,124.830546 C258.570704,124.854539 258.575116,124.878346 258.582102,124.901697 C258.588628,124.92357 258.597547,124.944808 258.606186,124.96632 C258.616484,124.991785 258.627053,125.016969 258.640016,125.041237 C258.643876,125.048501 258.645805,125.056133 258.649943,125.063304 L262.377555,131.519468 C262.517282,131.761785 262.771,131.897104 263.031886,131.897104 C263.159847,131.897104 263.289648,131.864381 263.408599,131.795617 C263.769503,131.587495 263.893237,131.125657 263.684746,130.764944 L260.175002,124.686036 L263.466881,118.984034 L270.050644,118.984034 L273.560391,125.063304 L277.288184,131.519467 C277.427912,131.761785 277.681627,131.897103 277.942519,131.897103 C278.07048,131.897103 278.200275,131.86438 278.319232,131.795617 C278.680133,131.587495 278.803866,131.125657 278.595376,130.764944 L274.867583,124.308767 L271.793382,118.984034 L277.506053,118.984034 L281.015797,125.063304 C281.155524,125.305621 281.409239,125.440933 281.670125,125.440933 C281.798086,125.440933 281.927887,125.408211 282.046657,125.339815 C282.407745,125.131325 282.531478,124.669487 282.322988,124.308767 L279.248787,118.984034 L291.545215,118.984034 L288.471021,124.308767 L284.743409,130.764944 L281.233659,136.844207 L274.649714,136.844207 L271.139971,130.764944 L267.412359,124.308767 C267.204052,123.947686 266.742766,123.823398 266.381314,124.032624 C266.02041,124.240746 265.896677,124.702584 266.105167,125.063304 L269.832779,131.519467 L273.560391,137.976005 C273.563696,137.981704 273.568753,137.985658 273.572157,137.991269 C273.60387,138.043023 273.63963,138.091646 273.682466,138.134121 C273.688072,138.13982 273.694787,138.143673 273.700574,138.149011 C273.737992,138.183941 273.778989,138.214457 273.822929,138.241306 C273.838923,138.250958 273.855104,138.259226 273.871746,138.267681 C273.909339,138.286986 273.948503,138.302624 273.9895,138.315494 C274.006229,138.320731 274.022229,138.326892 274.039326,138.330932 C274.092551,138.343615 274.147428,138.351621 274.204425,138.352344 C274.207917,138.352344 274.211228,138.353641 274.21472,138.353641 C274.215643,138.353641 274.216559,138.353267 274.217569,138.353267 L281.665804,138.353267 C281.66682,138.353267 281.667737,138.353641 281.66866,138.353641 C281.669576,138.353641 281.670493,138.353267 281.671509,138.353267 L287.817609,138.353267 L284.743409,143.678007 C284.534918,144.038733 284.658652,144.500571 285.019739,144.709055 C285.138503,144.777444 285.268304,144.810167 285.396265,144.810167 C285.657157,144.810167 285.910873,144.67486 286.0506,144.432543 L289.560344,138.353267 L295.273014,138.353267 L292.198633,143.678007 L288.688883,149.757283 L282.105119,149.757283 L278.595376,143.678007 C278.387072,143.316919 277.925415,143.193747 277.564515,143.401495 C277.203428,143.609979 277.079694,144.071817 277.288184,144.432543 L281.015796,150.889081 C281.019107,150.89478 281.024164,150.898733 281.027562,150.904333 C281.059275,150.956086 281.095035,151.004721 281.137871,151.047184 C281.143483,151.052883 281.150192,151.056749 281.155985,151.062086 C281.193397,151.097016 281.234394,151.127532 281.278335,151.154369 C281.294334,151.164021 281.310509,151.172302 281.327151,151.180757 C281.36475,151.200061 281.403908,151.215687 281.444905,151.228557 C281.461641,151.233794 281.477634,151.239955 281.494731,151.244008 C281.547956,151.25669 281.602839,151.264684 281.65983,151.26542 C281.663322,151.26542 281.666633,151.266704 281.670125,151.266704 C281.671048,151.266704 281.671964,151.266343 281.672974,151.266343 L288.688883,151.266343 L292.198633,157.345606 L295.708558,163.424882 L292.416495,169.126522 L285.832732,169.126522 L282.322988,163.04762 C282.318854,163.04045 282.313061,163.034751 282.308647,163.027755 C282.294212,163.004497 282.277944,162.982985 282.261121,162.961573 C282.246599,162.943004 282.232532,162.924523 282.216538,162.907612 C282.200358,162.890515 282.182525,162.875251 282.164785,162.859713 C282.145481,162.842715 282.12645,162.825705 282.105674,162.811002 C282.087654,162.798133 282.06835,162.787458 282.049139,162.776247 C282.026342,162.762916 282.00382,162.749497 281.97992,162.738648 C281.960248,162.729731 281.939565,162.723109 281.919064,162.715939 C281.893143,162.706748 281.867311,162.697831 281.840561,162.691584 C281.82107,162.687082 281.801216,162.6846 281.781263,162.681657 C281.751209,162.677155 281.721423,162.673389 281.690901,162.672553 C281.683549,162.672279 281.676747,162.670346 281.669389,162.670346 L259.303538,162.670346 C258.886744,162.670346 258.548824,163.007902 258.548824,163.424882 C258.548824,163.841863 258.886744,164.179406 259.303538,164.179406 L281.233659,164.179406 L284.089997,169.126522 L256.011476,169.126522 L252.501729,163.04762 C252.293425,162.686533 251.832136,162.562238 251.470684,162.77147 C251.10978,162.979593 250.986047,163.441431 251.194537,163.802144 L254.268735,169.126522 L248.556251,169.126522 L245.264373,163.424882 L248.556251,157.722881 L263.027565,157.722881 C263.028578,157.722881 263.029495,157.723242 263.030414,157.723242 C263.033909,157.723242 263.037217,157.721958 263.040712,157.721958 C263.097706,157.721222 263.152586,157.713228 263.205811,157.700533 C263.222908,157.696493 263.238905,157.690332 263.255634,157.685095 C263.296635,157.672225 263.335796,157.656599 263.373392,157.637295 C263.39003,157.62884 263.406211,157.620559 263.422205,157.610907 C263.466145,157.58407 263.507145,157.553542 263.544561,157.518612 C263.55035,157.513287 263.557062,157.509421 263.562668,157.503722 C263.605508,157.461259 263.641267,157.412624 263.67298,157.36087 C263.676381,157.355259 263.681438,157.351306 263.684746,157.345606 L266.758763,152.021153 L269.832779,157.345606 C269.972507,157.587923 270.226222,157.723242 270.487111,157.723242 C270.615072,157.723242 270.744869,157.690519 270.86364,157.62213 C271.224727,157.413634 271.348461,156.951796 271.13997,156.591083 L267.412358,150.134545 L263.902611,144.055269 L266.758763,139.108077 L269.832779,144.432543 L273.560391,150.889081 L277.288184,157.345606 C277.291495,157.351305 277.296552,157.355259 277.29995,157.36087 C277.331663,157.412624 277.367423,157.461259 277.410266,157.503722 C277.415871,157.509421 277.42258,157.513287 277.428373,157.518612 C277.465785,157.553542 277.506782,157.58407 277.550729,157.610907 C277.566722,157.620559 277.582903,157.62884 277.599539,157.637295 C277.637138,157.656599 277.676296,157.672225 277.717299,157.685095 C277.734028,157.690332 277.750022,157.696493 277.767119,157.700533 C277.820344,157.713228 277.875227,157.721222 277.932218,157.721958 C277.935716,157.721958 277.939021,157.723242 277.942519,157.723242 C277.943436,157.723242 277.944352,157.722881 277.945369,157.722881 L284.961271,157.722881 L288.471021,163.802144 C288.610748,164.044461 288.864463,164.17978 289.125349,164.17978 C289.25331,164.17978 289.383111,164.147057 289.501882,164.078656 C289.862969,163.870171 289.986697,163.408334 289.778212,163.04762 L286.0506,156.591082 C286.04646,156.583912 286.040673,156.5783 286.036352,156.571229 C286.021824,156.547871 286.005369,156.526185 285.988459,156.504673 C285.974118,156.486379 285.960144,156.468084 285.944518,156.451448 C285.927783,156.433703 285.909401,156.418077 285.891013,156.40199 C285.872357,156.385715 285.85415,156.369354 285.834203,156.3552 C285.814718,156.34122 285.793755,156.329635 285.772985,156.317688 C285.752022,156.305554 285.731339,156.293146 285.709366,156.28312 C285.687212,156.273018 285.664048,156.265573 285.64079,156.257567 C285.617626,156.249661 285.594736,156.24158 285.570929,156.235881 C285.548588,156.230631 285.525698,156.227787 285.502721,156.224483 C285.475691,156.220617 285.448941,156.217212 285.42155,156.216289 C285.413182,156.216015 285.405463,156.213808 285.397001,156.213808 L278.377513,156.213808 L274.867583,150.134544 L271.13997,143.678006 L267.412358,137.221469 C267.405372,137.209247 267.395813,137.199595 267.388274,137.187922 C267.373013,137.164565 267.357294,137.141769 267.339368,137.120082 C267.32411,137.101513 267.307745,137.084503 267.291016,137.067768 C267.273551,137.050209 267.255898,137.033212 267.23641,137.017299 C267.215637,137.000202 267.193851,136.985225 267.171513,136.970509 C267.159192,136.962428 267.148897,136.952402 267.136028,136.944957 C267.128489,136.940642 267.120402,136.938522 267.11277,136.934482 C267.089328,136.922073 267.065244,136.912047 267.040792,136.90212 C267.018545,136.893116 266.996484,136.883826 266.973778,136.877117 C266.950888,136.87032 266.92754,136.865993 266.904098,136.861304 C266.879553,136.856527 266.855376,136.851377 266.83074,136.848983 C266.80684,136.846688 266.782846,136.84715 266.758762,136.84715 C266.734678,136.84715 266.710685,136.846688 266.686785,136.848983 C266.662146,136.851377 266.637972,136.856528 266.613426,136.861304 C266.589985,136.865993 266.566637,136.87032 266.543747,136.877117 C266.521041,136.883826 266.498977,136.893116 266.476733,136.90212 C266.452281,136.912047 266.428194,136.922073 266.404755,136.934482 C266.397123,136.938522 266.389036,136.940642 266.381497,136.944957 C266.368628,136.952402 266.35833,136.962428 266.346012,136.970509 C266.323674,136.985225 266.301888,137.000202 266.281112,137.017299 C266.261623,137.033212 266.243974,137.050209 266.226509,137.067768 C266.20978,137.084503 266.193415,137.101513 266.178154,137.120082 C266.160231,137.141769 266.144512,137.164565 266.129251,137.187922 C266.121712,137.199595 266.112153,137.209247 266.105167,137.221469 L262.59542,143.300745 L255.575745,143.300745 C255.567287,143.300745 255.559564,143.302952 255.551199,143.303226 C255.523805,143.304149 255.497055,143.307541 255.470028,143.311407 C255.447048,143.314712 255.424158,143.317567 255.40182,143.322805 C255.37801,143.328504 255.35512,143.336598 255.331956,143.344504 C255.308698,143.352498 255.285531,143.359943 255.263377,143.370056 C255.241407,143.38007 255.220724,143.392491 255.199764,143.404625 C255.178991,143.416572 255.158031,143.428157 255.138543,143.442124 C255.118593,143.456278 255.100392,143.47264 255.081733,143.488914 C255.063348,143.505001 255.04496,143.520627 255.028231,143.538373 C255.012605,143.555009 254.998632,143.573303 254.98429,143.591597 C254.967377,143.613109 254.950922,143.634808 254.936397,143.658153 C254.932076,143.665237 254.926283,143.670836 254.922149,143.678007 L251.412402,149.757283 L244.39291,149.757283 C243.976116,149.757283 243.638194,150.094826 243.638194,150.511806 C243.638194,150.928787 243.976116,151.266343 244.39291,151.266343 L251.844547,151.266343 C251.845558,151.266343 251.846477,151.266704 251.847397,151.266704 C251.848317,151.266704 251.849236,151.266343 251.850246,151.266343 L259.303538,151.266343 C259.720332,151.266343 260.058255,150.928787 260.058255,150.511806 C260.058255,150.094826 259.720332,149.757283 259.303538,149.757283 L253.15514,149.757283 L256.011475,144.809805 L262.595329,144.809805 L265.887301,150.511806 L262.595329,156.213808 L248.120521,156.213808 C248.112065,156.213808 248.104343,156.216015 248.095978,156.21629 C248.068583,156.217213 248.041741,156.220617 248.014714,156.224483 C247.991733,156.2277 247.968934,156.230631 247.946689,156.235881 C247.922696,156.24158 247.899716,156.249661 247.876364,156.257755 C247.85329,156.265661 247.830217,156.273106 247.808246,156.28312 C247.786002,156.293234 247.765135,156.305742 247.743991,156.317963 C247.723399,156.329922 247.702807,156.341321 247.683502,156.355013 C247.663278,156.369354 247.644709,156.386078 247.625866,156.402539 C247.607756,156.418352 247.589739,156.433703 247.573284,156.451162 C247.557381,156.468084 247.543223,156.486653 247.528698,156.505122 C247.511969,156.526547 247.495698,156.547971 247.481266,156.571229 C247.476855,156.578213 247.471062,156.583812 247.466925,156.591082 L243.739314,163.04762 C243.735177,163.054791 243.733247,163.06251 243.729386,163.069768 C243.716332,163.094123 243.70576,163.119227 243.695556,163.144692 C243.686916,163.166204 243.677999,163.187341 243.671472,163.209128 C243.664486,163.23266 243.660073,163.256466 243.655293,163.28056 C243.650604,163.30464 243.645549,163.328547 243.643159,163.352814 C243.64086,163.376808 243.64132,163.400702 243.64132,163.424882 C243.64132,163.449063 243.64086,163.472957 243.643159,163.49695 C243.645549,163.521218 243.650604,163.545212 243.655385,163.569392 C243.660073,163.593386 243.664486,163.617192 243.671472,163.640537 C243.677999,163.662423 243.686916,163.683648 243.695556,163.70516 C243.705852,163.730625 243.716424,163.755816 243.729386,163.780084 C243.733247,163.787342 243.735177,163.794974 243.739314,163.802144 L246.813513,169.126522 L234.5169,169.126522 L237.591099,163.802144 C237.799588,163.441431 237.675856,162.979593 237.314952,162.771471 C236.953315,162.562238 236.492213,162.686533 236.283908,163.04762 L232.774161,169.126522 L227.061862,169.126522 L230.135876,163.802144 L236.937504,152.021153 L240.011702,157.345606 C240.151431,157.587923 240.405148,157.723242 240.666034,157.723242 C240.793995,157.723242 240.923796,157.690519 241.042749,157.621756 C241.40365,157.413634 241.527384,156.951796 241.318895,156.591083 L237.808964,150.511806 L241.318895,144.432543 L244.39291,139.108077 L247.466925,144.432543 C247.606653,144.67486 247.860371,144.810166 248.121257,144.810166 C248.249218,144.810166 248.379019,144.777444 248.497786,144.709055 C248.858873,144.50057 248.982607,144.038733 248.774116,143.678007 L245.264373,137.598743 L248.120521,132.65154 L251.194537,137.976005 C251.197845,137.981704 251.202902,137.985658 251.206303,137.991269 C251.238019,138.043022 251.273779,138.091645 251.316615,138.13412 C251.322221,138.13982 251.328933,138.143673 251.334726,138.14901 C251.372138,138.183941 251.413138,138.214456 251.457078,138.241306 C251.473072,138.250958 251.489253,138.259226 251.505892,138.267681 C251.543488,138.286986 251.582649,138.302624 251.623649,138.315493 C251.640378,138.320731 251.656375,138.326892 251.673472,138.330932 C251.726697,138.343615 251.781577,138.351621 251.838571,138.352344 C251.842066,138.352344 251.845374,138.353641 251.848869,138.353641 C251.849789,138.353641 251.850708,138.353267 251.851718,138.353267 L259.301424,138.353267 C259.302438,138.353267 259.303354,138.353641 259.304274,138.353641 C259.30924,138.353641 259.314294,138.351796 259.319351,138.351708 C259.373954,138.350511 259.42672,138.343153 259.477831,138.331019 C259.494747,138.326979 259.510925,138.320906 259.527564,138.315668 C259.571504,138.301888 259.613424,138.284691 259.653502,138.263553 C259.662418,138.258765 259.672164,138.257293 259.68099,138.252155 C259.688251,138.247927 259.69386,138.242228 259.700937,138.237814 C259.724101,138.223373 259.745523,138.207111 259.766941,138.190376 C259.785416,138.175947 259.803801,138.16188 259.820624,138.146067 C259.838276,138.129332 259.853902,138.11105 259.869898,138.092755 C259.88617,138.074087 259.902531,138.055892 259.916779,138.035939 C259.930662,138.016448 259.942244,137.995584 259.954284,137.974721 C259.966421,137.95367 259.978923,137.933069 259.988943,137.911008 C259.999054,137.888948 260.006408,137.865877 260.014405,137.842706 C260.022402,137.819449 260.030492,137.796565 260.036191,137.772659 C260.041432,137.750324 260.044372,137.72744 260.04759,137.704457 C260.051452,137.677433 260.054854,137.650584 260.055773,137.623186 C260.056048,137.614918 260.058255,137.607099 260.058255,137.598743 C260.058255,137.584402 260.054854,137.571158 260.054024,137.557004 C260.052556,137.529519 260.050349,137.502308 260.045753,137.47491 C260.041707,137.450742 260.036007,137.427484 260.029756,137.404126 C260.023506,137.380781 260.016887,137.357798 260.008248,137.334815 C259.998411,137.308801 259.986736,137.284072 259.974234,137.259442 C259.96789,137.246934 259.964214,137.23379 259.957137,137.221469 L256.229341,130.764943 C256.021034,130.403856 255.559748,130.280671 255.198296,130.488419 C254.837392,130.696916 254.713659,131.158754 254.922149,131.519467 L257.99653,136.844207 L252.283954,136.844207 L248.991981,131.142205 L252.501728,125.063303 L256.22934,118.606765 L259.957137,112.150227 C260.165624,111.789508 260.04189,111.32767 259.68099,111.119186 C259.319351,110.911431 258.858249,111.03461 258.649942,111.395697 L254.922149,117.852235 L251.194537,124.308767 L247.466925,130.764943 L240.011702,143.678007 L236.283908,150.134544 L228.828685,163.04762 L225.101073,169.503784 C224.966309,169.737272 224.966309,170.02482 225.101073,170.258308 C225.235837,170.491808 225.484957,170.635944 225.754669,170.635944 L374.860603,170.635944 C374.86079,170.635944 374.860877,170.635944 374.860965,170.635944 C374.861152,170.635944 374.861239,170.635944 374.861339,170.635944 C374.862162,170.635944 374.862997,170.635944 374.863908,170.635944 C374.923667,170.635944 374.981119,170.626478 375.036913,170.61306 C375.05199,170.609468 375.066331,170.603956 375.081221,170.599355 C375.127275,170.585201 375.171035,170.567181 375.212861,170.544945 C375.221042,170.540531 375.229959,170.539147 375.238052,170.534458 C375.244761,170.530604 375.249999,170.525267 375.256434,170.521226 C375.280976,170.50605 375.303598,170.488865 375.32612,170.471119 C375.343579,170.457427 375.36105,170.444095 375.37695,170.429118 C375.395332,170.411834 375.411606,170.392804 375.428154,170.373773 C375.44388,170.355666 375.45978,170.338008 375.47356,170.318703 C375.487808,170.29885 375.499581,170.277613 375.511802,170.256288 Z" id="Path-Copy"></path>
        </g>
    </g>
</svg>